<?xml version="1.0" encoding="UTF-8"?>
<svg width="16px" height="16px" viewBox="0 0 16 16" version="1.1" xmlns="http://www.w3.org/2000/svg" xmlns:xlink="http://www.w3.org/1999/xlink">
    <title>boy</title>
    <g id="20220402确定版本" stroke="none" stroke-width="1" fill="none" fill-rule="evenodd">
        <g id="0图标补充" transform="translate(-35.000000, -476.000000)" fill-rule="nonzero">
            <g id="boy" transform="translate(35.000000, 476.000000)">
                <rect id="矩形" fill="#000000" opacity="0" x="0" y="0" width="16" height="16"></rect>
                <path d="M15.3707187,0.23428125 L9.4318125,0.23428125 L9.4318125,2.03496875 C9.4318125,2.03496875 11.7517812,2.03496875 12.7050312,2.03496875 C12.0800625,2.636125 11.5849687,3.05971875 10.6747812,3.93484375 C9.603625,3.17321875 8.29715625,2.7204375 6.88409375,2.7204375 C3.2733125,2.7204375 0.33525,5.6483125 0.33525,9.24784375 C0.33525,12.8471875 3.2733125,15.77525 6.88409375,15.77525 C10.4946875,15.77525 13.4329375,12.8471875 13.4329375,9.24784375 C13.4329375,7.70153125 12.8879375,6.2808125 11.9829687,5.16134375 C12.90375,4.2550625 13.3475625,3.83946875 13.9405,3.2559375 C13.9405,4.15459375 13.9405,6.27434375 13.9405,6.27434375 L15.671875,6.27434375 L15.671875,0.23428125 L15.3707187,0.23428125 Z M6.88409375,13.9745625 C4.269375,13.9745625 2.14184375,11.85425 2.14184375,9.24784375 C2.14184375,6.6414375 4.269375,4.521125 6.88409375,4.521125 C9.498625,4.521125 11.6263438,6.6414375 11.6263438,9.24784375 C11.6263438,11.85425 9.49859375,13.9745625 6.88409375,13.9745625 Z" id="形状" fill="#23B6FF"></path>
            </g>
        </g>
    </g>
</svg>