<?xml version="1.0" encoding="UTF-8"?>
<svg width="16px" height="16px" viewBox="0 0 16 16" version="1.1" xmlns="http://www.w3.org/2000/svg" xmlns:xlink="http://www.w3.org/1999/xlink">
    <title>girl</title>
    <g id="20220402确定版本" stroke="none" stroke-width="1" fill="none" fill-rule="evenodd">
        <g id="0图标补充" transform="translate(-67.000000, -476.000000)" fill-rule="nonzero">
            <g id="girl" transform="translate(67.000000, 476.000000)">
                <rect id="矩形" fill="#000000" opacity="0" x="0" y="0" width="16" height="16"></rect>
                <path d="M14.0670312,1.96978125 C11.6175312,-0.47971875 7.618,-0.46628125 5.151625,1.99990625 C2.91303125,4.2385 2.70240625,7.736 4.51209375,10.1951562 C4.26884375,10.4385 4.03084375,10.6765937 3.90240625,10.8050312 C3.5565625,10.4591875 1.33846875,8.241 1.33846875,8.241 L0.104625,9.474875 C0.104625,9.474875 2.32271875,11.692875 2.6685625,12.0387187 C2.34959375,12.3576875 0.9460625,13.761125 0.9460625,13.761125 L2.19721875,15.0122812 C2.19721875,15.0122812 3.600625,13.6087812 3.919625,13.2897812 C4.26559375,13.6358437 6.4736875,15.84375 6.4736875,15.84375 L7.707625,14.6101875 C7.707625,14.6101875 5.49953125,12.4019062 5.1535,12.0560625 C5.27834375,11.9312187 5.51046875,11.6990937 5.751125,11.4585 C8.21453125,13.3405625 11.771,13.150875 14.0367187,10.8849687 C16.5031875,8.418625 16.5164375,4.419 14.0670312,1.96978125 Z M12.811125,9.65959375 C11.02525,11.4455625 8.12915625,11.4556563 6.3550625,9.6815625 C4.581125,7.90746875 4.59115625,5.01146875 6.37721875,3.2255 C8.1631875,1.43925 11.0591875,1.429625 12.8331875,3.20325 C14.6074063,4.977625 14.5972812,7.87334375 12.811125,9.65959375 Z" id="形状" fill="#E97E86"></path>
            </g>
        </g>
    </g>
</svg>