<svg width="16" height="16" xmlns="http://www.w3.org/2000/svg"><path d="M8 2.55c2.521.229 4.479 1.146 5.875 2.75S15.979 7.821 16 8.05c-.021.229-.729 1.146-2.125 2.75S10.521 13.321 8 13.55c-2.521-.229-4.479-1.146-5.875-2.75S.021 8.279 0 8.05c.021-.229.729-1.146 2.125-2.75S5.479 2.779 8 2.55zm0 1c-1.771.115-3.245.711-4.422 1.789C2.401 6.417 1.599 7.321 1.171 8.05c.428.729 1.23 1.633 2.407 2.711C4.755 11.839 6.229 12.435 8 12.55c1.771-.115 3.245-.711 4.422-1.789 1.177-1.078 1.979-1.982 2.406-2.711-.427-.729-1.229-1.633-2.406-2.711C11.245 4.261 9.771 3.665 8 3.55zm0 1c.99.021 1.815.362 2.476 1.023.662.662 1.003 1.487 1.024 2.477-.021.99-.362 1.815-1.024 2.476-.661.662-1.486 1.003-2.476 1.024-.99-.021-1.815-.362-2.477-1.024C4.862 9.865 4.521 9.04 4.5 8.05c.021-.99.362-1.815 1.023-2.477C6.185 4.912 7.01 4.571 8 4.55zm0 1c-.708.021-1.297.266-1.766.734-.468.469-.713 1.058-.734 1.766.021.708.266 1.297.734 1.766.469.468 1.058.713 1.766.734.708-.021 1.297-.266 1.766-.734.468-.469.713-1.058.734-1.766-.021-.708-.266-1.297-.734-1.766C9.297 5.816 8.708 5.571 8 5.55z"/></svg>