<svg width="16" height="16" xmlns="http://www.w3.org/2000/svg"><g><path d="M13.7 2.5c0-.15-.05-.25-.15-.35-.1-.1-.2-.15-.35-.15-.15 0-.25.05-.35.15L11.5 3.5c-1-.5-2.15-.8-3.5-.95C5.5 2.8 3.5 3.7 2.1 5.3.7 6.9 0 7.8 0 8.05S.75 9.2 2.1 10.8c.35.4.7.75 1.15 1.05l-1.35 1.4c-.1.1-.15.2-.15.35 0 .15.05.25.15.35.1.1.2.15.35.15.15 0 .25-.05.35-.15l11-11.1c.05-.1.1-.2.1-.35zM3.6 10.75c-1.2-1.1-2-2-2.4-2.7.45-.75 1.25-1.65 2.4-2.7C4.75 4.3 6.25 3.65 8 3.55c1 .05 1.95.3 2.75.7l-.85.85c-.55-.35-1.15-.55-1.9-.55-1 0-1.8.35-2.5 1s-1 1.5-1 2.5c0 .75.2 1.4.55 1.95L4 11.1c-.15-.1-.3-.25-.4-.35zm2.2-1.5c-.2-.35-.3-.75-.3-1.2 0-.7.25-1.3.75-1.75.5-.45 1.05-.75 1.75-.75.45 0 .85.1 1.15.3L5.8 9.25zM13.9 5.3c-.2-.25-.45-.45-.65-.65l-.75.75c1.15 1.05 1.95 1.95 2.35 2.65-.45.75-1.25 1.65-2.4 2.7-1.15 1.05-2.7 1.7-4.45 1.8-.8-.05-1.55-.2-2.2-.45l-.75.75c.9.35 1.85.6 2.95.7 2.5-.25 4.5-1.15 5.9-2.75C15.3 9.2 16 8.3 16 8.05s-.75-1.15-2.1-2.75z"/><path d="M8 10.55c-.2 0-.4-.05-.6-.1l-.8.8c.45.2.9.3 1.4.3 1 0 1.8-.35 2.5-1 .65-.65 1-1.5 1-2.5 0-.5-.1-1-.3-1.4l-.8.8c.05.2.1.4.1.6 0 .7-.25 1.3-.75 1.75-.5.45-1.05.75-1.75.75z"/></g></svg>