<svg class="icon" viewBox="0 0 1024 1024" xmlns="http://www.w3.org/2000/svg" width="200" height="200"><defs><style>@font-face{font-family:element-icons;src:url(chrome-extension://moombeodfomdpjnpocobemoiaemednkg/fonts/element-icons.woff) format(&quot;woff&quot;),url(&quot;chrome-extension://moombeodfomdpjnpocobemoiaemednkg/fonts/element-icons.ttf &quot;) format(&quot;truetype&quot;)}@font-face{font-family:feedback-iconfont;src:url(//at.alicdn.com/t/font_1031158_u69w8yhxdu.woff2?t=1630033759944) format(&quot;woff2&quot;),url(//at.alicdn.com/t/font_1031158_u69w8yhxdu.woff?t=1630033759944) format(&quot;woff&quot;),url(//at.alicdn.com/t/font_1031158_u69w8yhxdu.ttf?t=1630033759944) format(&quot;truetype&quot;)}</style></defs><path d="M481.3 494.7h61.4v64.6h-61.4zm.5 132.6h61.9v63.3h-61.9zm-1-264.7h61.8v61.2h-61.8zm-132.7.6h59.8v62.1h-59.8zm264.5-1.1H673v62.7h-60.4zM347.2 494.9h62v63.5h-62zm265.3.1h62v63.3h-62zM346.9 627.6h61.5v63.7h-61.5zm266.3-.6h61.2v63.6h-61.2z"/><path d="M897.3 893.9V594.4c0-49-39.7-88.7-88.7-88.7H784V339.4c0-49.1-39.8-88.8-88.8-88.8H529.9v-72.4h89.8v-43.3h-89.8v-73h-46.6v72.8h-89.8V178h89.8v72.4H318.2c-49.1 0-88.8 39.8-88.8 88.8v166.3h-19.8c-49 0-88.7 39.7-88.7 88.7v299.5H59.1v44.4h900v-44.4h-61.8zm-730.6 0V594.4c0-24.5 19.9-44.4 44.4-44.4h18.3v343.8h-62.7zm107 0V339.3c0-24.5 19.9-44.4 44.4-44.4h377.1c24.5 0 44.4 19.9 44.4 44.4v554.6H273.7zm580.7 0h-70.5V550H810c24.5 0 44.4 19.9 44.4 44.4v299.5z"/></svg>