<svg class="icon" viewBox="0 0 1024 1024" xmlns="http://www.w3.org/2000/svg" width="200" height="200"><defs><style>@font-face{font-family:element-icons;src:url(chrome-extension://moombeodfomdpjnpocobemoiaemednkg/fonts/element-icons.woff) format(&quot;woff&quot;),url(&quot;chrome-extension://moombeodfomdpjnpocobemoiaemednkg/fonts/element-icons.ttf &quot;) format(&quot;truetype&quot;)}@font-face{font-family:feedback-iconfont;src:url(//at.alicdn.com/t/font_1031158_u69w8yhxdu.woff2?t=1630033759944) format(&quot;woff2&quot;),url(//at.alicdn.com/t/font_1031158_u69w8yhxdu.woff?t=1630033759944) format(&quot;woff&quot;),url(//at.alicdn.com/t/font_1031158_u69w8yhxdu.ttf?t=1630033759944) format(&quot;truetype&quot;)}</style></defs><path d="M680.533 874.667H211.2c-23.467 0-40.533-19.2-40.533-42.667V192c0-23.467 19.2-42.667 40.533-42.667h558.933c21.334 0 40.534 19.2 40.534 42.667v320c0 12.8 8.533 21.333 21.333 21.333S853.333 524.8 853.333 512V192c0-46.933-38.4-85.333-83.2-85.333H211.2c-46.933 0-83.2 38.4-83.2 85.333v640c0 46.933 38.4 85.333 83.2 85.333h471.467c12.8 0 21.333-8.533 21.333-21.333s-10.667-21.333-23.467-21.333z"/><path d="M633.6 512c0-12.8-8.533-21.333-21.333-21.333h-332.8c-12.8 0-21.334 8.533-21.334 21.333s8.534 21.333 21.334 21.333H614.4c10.667 0 19.2-8.533 19.2-21.333zM277.333 682.667C264.533 682.667 256 691.2 256 704s8.533 21.333 21.333 21.333h275.2c12.8 0 21.334-8.533 21.334-21.333s-8.534-21.333-21.334-21.333h-275.2zM256 309.333a32 32 0 1 0 64 0 32 32 0 1 0-64 0zM469.333 309.333a32 32 0 1 0 64 0 32 32 0 1 0-64 0zM661.333 309.333a32 32 0 1 0 64 0 32 32 0 1 0-64 0zM864 578.133c-25.6 0-49.067 10.667-66.133 27.734l-8.534 8.533-8.533-8.533c-17.067-17.067-42.667-27.734-66.133-27.734-53.334 0-96 44.8-96 98.134 0 32 14.933 55.466 27.733 70.4L753.067 857.6c10.666 10.667 21.333 19.2 36.266 19.2s25.6-8.533 36.267-19.2l106.667-110.933s0-2.134 2.133-2.134c12.8-17.066 27.733-34.133 27.733-68.266-2.133-53.334-44.8-98.134-98.133-98.134zM900.267 716.8L795.733 825.6c-4.266 4.267-4.266 6.4-6.4 6.4-2.133 0-4.266-2.133-6.4-6.4L678.4 716.8c-8.533-8.533-17.067-23.467-17.067-40.533 0-29.867 23.467-55.467 53.334-55.467 12.8 0 25.6 6.4 36.266 14.933L774.4 659.2c4.267 4.267 8.533 6.4 14.933 6.4s10.667-2.133 14.934-6.4c0 0 19.2-21.333 23.466-23.467C838.4 625.067 851.2 620.8 864 620.8c29.867 0 53.333 25.6 53.333 55.467 0 17.066-4.266 25.6-17.066 40.533z"/></svg>