<svg class="icon" viewBox="0 0 1024 1024" xmlns="http://www.w3.org/2000/svg" width="200" height="200"><defs><style>@font-face{font-family:element-icons;src:url(chrome-extension://moombeodfomdpjnpocobemoiaemednkg/fonts/element-icons.woff) format(&quot;woff&quot;),url(&quot;chrome-extension://moombeodfomdpjnpocobemoiaemednkg/fonts/element-icons.ttf &quot;) format(&quot;truetype&quot;)}@font-face{font-family:feedback-iconfont;src:url(//at.alicdn.com/t/font_1031158_u69w8yhxdu.woff2?t=1630033759944) format(&quot;woff2&quot;),url(//at.alicdn.com/t/font_1031158_u69w8yhxdu.woff?t=1630033759944) format(&quot;woff&quot;),url(//at.alicdn.com/t/font_1031158_u69w8yhxdu.ttf?t=1630033759944) format(&quot;truetype&quot;)}</style></defs><path d="M512 725.333c-117.632 0-213.333-95.701-213.333-213.333S394.368 298.667 512 298.667 725.333 394.368 725.333 512 629.632 725.333 512 725.333zm0-362.666c-82.347 0-149.333 66.986-149.333 149.333S429.653 661.333 512 661.333 661.333 594.347 661.333 512 594.347 362.667 512 362.667z"/><path d="M357.515 895.957a68.07 68.07 0 0 1-28.918-6.442 435.445 435.445 0 0 1-58.272-32.95 66.453 66.453 0 0 1-29.034-62.741 182.155 182.155 0 0 0-24.427-113.621l-.565-.96c-20.566-34.859-51.222-61.792-88.683-77.963a68.053 68.053 0 0 1-40.96-57.056 404.224 404.224 0 0 1-.203-62.763 70.112 70.112 0 0 1 42.368-59.285c36.886-15.925 67.04-42.475 87.19-76.757l.64-1.078c20.64-34.901 29.077-73.984 24.682-113.525-2.794-25.29 8.747-49.888 30.112-64.213a424.128 424.128 0 0 1 56.768-31.926 69.27 69.27 0 0 1 69.526 6.347 193.472 193.472 0 0 0 113.226 36.256h1.942a193.6 193.6 0 0 0 113.461-36.341 68.49 68.49 0 0 1 69.045-6.475 434.88 434.88 0 0 1 57.835 32.65c20.97 14.06 32.267 38.22 29.504 63.04a182.23 182.23 0 0 0 24.416 113.643l.661 1.12c20.47 34.678 51.115 61.622 88.587 77.792a68.032 68.032 0 0 1 40.96 57.067 406.118 406.118 0 0 1 .096 64.235 68.021 68.021 0 0 1-40.928 57.237l-1.227.544c-36.97 15.957-67.125 42.507-87.285 76.79l-.565.96c-20.416 34.506-29.099 74.645-24.779 113.631 2.805 25.291-8.725 49.899-30.112 64.214a422.4 422.4 0 0 1-56.757 31.914 69.355 69.355 0 0 1-69.504-6.336A193.515 193.515 0 0 0 513.077 846.7h-2.208a192.715 192.715 0 0 0-112.96 36.181 69.408 69.408 0 0 1-40.394 13.077zm.085-703.765a5.525 5.525 0 0 0-2.379.533 358.005 358.005 0 0 0-48.17 27.083c-1.451.97-2.272 2.507-2.102 3.99a248.075 248.075 0 0 1-32.928 152.64l-.917 1.557c-26.997 45.952-67.456 81.6-116.928 102.965-2.24.96-3.733 2.987-3.904 5.28a341.11 341.11 0 0 0 .17 52.821 4.17 4.17 0 0 0 2.54 3.478c49.994 21.568 90.933 57.589 118.4 104.149l.565.96a249.216 249.216 0 0 1 32.938 153.312 2.613 2.613 0 0 0 1.131 2.507 370.72 370.72 0 0 0 49.675 28.085 4.33 4.33 0 0 0 4.277-.235c44.587-31.936 96.523-48.597 150.837-48.597h2.251a257.077 257.077 0 0 1 150.475 48.224c1.44 1.035 3.498 1.173 5.269.341a360.48 360.48 0 0 0 48.15-27.072c1.46-.981 2.26-2.496 2.1-3.968v-.01a248.021 248.021 0 0 1 32.94-152.651l.853-1.45c27.072-46.049 67.53-81.697 117.002-103.062l1.206-.533a4.203 4.203 0 0 0 2.57-3.531 338.646 338.646 0 0 0-.074-54.048 4.117 4.117 0 0 0-2.539-3.477c-49.995-21.579-90.923-57.59-118.4-104.139l-.661-1.12a249.024 249.024 0 0 1-32.832-153.152c.117-1.003-.491-2.07-1.558-2.795A375.04 375.04 0 0 0 668.3 192.47a4.288 4.288 0 0 0-4.256.224 257.61 257.61 0 0 1-151.126 48.608h-1.973a257.227 257.227 0 0 1-150.475-48.224 4.907 4.907 0 0 0-2.869-.885z"/></svg>