<svg width="20" height="20" xmlns="http://www.w3.org/2000/svg"><g><path d="M10.06 2.462c-1.309 0-2.481.274-3.51.825-.518.282-.84.82-.841 1.408v2.654a3.815 3.815 0 0 0 3.815 3.816h1.072a3.815 3.815 0 0 0 3.816-3.816V4.696a1.604 1.604 0 0 0-.84-1.407c-1.03-.553-2.203-.827-3.512-.827zm0 1.2c1.117 0 2.095.228 2.943.683.127.069.208.205.209.352v2.652a2.615 2.615 0 0 1-2.616 2.616H9.524A2.615 2.615 0 0 1 6.91 7.349V4.696c0-.146.081-.282.211-.353.845-.453 1.823-.681 2.94-.681z"/><path d="M10.167 10.03c-4.1 0-6.678 2.272-7.612 6.668l-.01.058-.007.102a.8.8 0 0 0 .796.804h13.664c.08-.003.08-.003.157-.016a.8.8 0 0 0 .625-.945c-.934-4.399-3.512-6.67-7.613-6.67zm.275 1.205c3.167.09 5.143 1.758 6.024 5.12l.026.106H3.842l.02-.081c.907-3.479 2.973-5.15 6.305-5.15l.275.005z"/><path d="M10.199 12.059a.6.6 0 0 1 .6.6v2.52a.6.6 0 1 1-1.2 0v-2.52a.6.6 0 0 1 .6-.6z"/><path d="M12.086 13.983a.6.6 0 0 1-.6.6H8.92a.6.6 0 1 1 0-1.2h2.567a.6.6 0 0 1 .6.6z"/><path d="M10.06 5.677c1.287 0 2.443.266 3.46.8.315.166.658.427.844.696l.07.115-1.07.545a.346.346 0 0 0-.058-.056l-.125-.097a1.95 1.95 0 0 0-.22-.142c-.837-.44-1.802-.66-2.9-.66-1.1 0-2.064.22-2.9.66l-.058.035-.15.108-.125.105-.03.03-.979-.695c.15-.21.534-.514.782-.645 1.016-.533 2.172-.799 3.46-.799z"/></g></svg>