<svg class="icon" viewBox="0 0 1024 1024" xmlns="http://www.w3.org/2000/svg" width="200" height="200"><defs><style>@font-face{font-family:element-icons;src:url(chrome-extension://moombeodfomdpjnpocobemoiaemednkg/fonts/element-icons.woff) format(&quot;woff&quot;),url(&quot;chrome-extension://moombeodfomdpjnpocobemoiaemednkg/fonts/element-icons.ttf &quot;) format(&quot;truetype&quot;)}@font-face{font-family:feedback-iconfont;src:url(//at.alicdn.com/t/font_1031158_u69w8yhxdu.woff2?t=1630033759944) format(&quot;woff2&quot;),url(//at.alicdn.com/t/font_1031158_u69w8yhxdu.woff?t=1630033759944) format(&quot;woff&quot;),url(//at.alicdn.com/t/font_1031158_u69w8yhxdu.ttf?t=1630033759944) format(&quot;truetype&quot;)}</style></defs><path d="M525.227 128c69.461 0 138.41 21.483 206.378 63.872a32 32 0 0 1 14.891 23.872l.17 3.285v175.638a223.573 223.573 0 0 1-83.754 174.677c130.347 40.17 226.453 158.87 232.747 301.44l.256 7.53.085 6.678a32 32 0 0 1-29.056 32.213l-2.944.128H181.333a32 32 0 0 1-32-32c0-148.65 98.091-274.389 233.088-316.032a223.467 223.467 0 0 1-83.626-167.36l-.128-7.274V219.029a31.982 31.982 0 0 1 15.701-27.52C385.558 149.333 455.936 128 525.227 128zm40.106 490.667H480c-134.059 0-244.992 98.901-263.85 227.733l-.897 6.933h614.87l-.832-6.336c-17.984-125.013-122.603-221.738-250.71-228.01l-6.656-.235-6.592-.085zm-40.106-256c-52.118 0-106.027 14.976-161.984 45.333a160 160 0 0 0 148.949 146.347l5.29.234 5.185.086a160 160 0 0 0 159.488-147.072c-52.907-30.102-105.088-44.928-156.928-44.928zm0-170.667c-48.427 0-98.39 12.907-150.08 39.083l-9.728 5.077-2.752 1.493v99.051c54.784-25.28 109.013-38.037 162.56-38.037 52.842 0 105.386 12.437 157.44 37.056v-98.496l-2.368-1.366c-46.251-26.005-92.011-40.32-137.451-43.264l-9.088-.426-8.533-.15z"/><path d="M523.733 648.384a32 32 0 0 1 31.83 28.907l.149 3.093v32h32a32 32 0 0 1 3.093 63.85l-3.093.15h-32v32a32 32 0 0 1-63.85 3.072l-.15-3.072v-32h-32a32 32 0 0 1-3.072-63.85l3.072-.15h32v-32a32 32 0 0 1 32-32z"/></svg>