<svg class="icon" viewBox="0 0 1024 1024" xmlns="http://www.w3.org/2000/svg" width="200" height="200"><defs><style>@font-face{font-family:element-icons;src:url(chrome-extension://moombeodfomdpjnpocobemoiaemednkg/fonts/element-icons.woff) format(&quot;woff&quot;),url(&quot;chrome-extension://moombeodfomdpjnpocobemoiaemednkg/fonts/element-icons.ttf &quot;) format(&quot;truetype&quot;)}@font-face{font-family:feedback-iconfont;src:url(//at.alicdn.com/t/font_1031158_u69w8yhxdu.woff2?t=1630033759944) format(&quot;woff2&quot;),url(//at.alicdn.com/t/font_1031158_u69w8yhxdu.woff?t=1630033759944) format(&quot;woff&quot;),url(//at.alicdn.com/t/font_1031158_u69w8yhxdu.ttf?t=1630033759944) format(&quot;truetype&quot;)}</style></defs><path d="M157.184 345.088l343.04 198.144v373.76L157.184 704V345.088zm-29.696-51.2v427.008L529.92 970.24V525.824L127.488 293.888m754.176 44.544V724.48L559.616 918.016V542.208l322.048-203.776zm29.184-53.76L529.92 525.824V970.24l380.928-229.376V284.672"/><path d="M510.464 100.864L852.992 286.72l-323.584 204.8-343.04-198.144 324.096-192.512zM509.44 66.56L127.488 293.888 529.92 526.336l380.928-241.152L509.44 66.56M296.96 717.312c-8.192 0-14.848-6.656-14.848-14.848v-145.92c0-8.192 6.656-14.848 14.848-14.848s14.848 6.656 14.848 14.848v145.92c0 8.192-6.656 14.848-14.848 14.848zm20.48 57.344c-2.56 0-5.632-1.024-8.192-2.56L194.56 698.368a15.36 15.36 0 0 1-4.608-20.48c4.608-6.656 13.824-8.704 20.48-4.608l115.2 74.24A15.36 15.36 0 0 1 330.24 768c-3.072 4.096-7.68 6.656-12.8 6.656z"/><path d="M304.64 201.728L657.408 412.16v203.264l90.624-46.08-3.584-188.416-364.032-225.792-75.776 46.592z"/></svg>