<svg width="20" height="20" xmlns="http://www.w3.org/2000/svg"><g><path d="M8.278 3.4a4.067 4.067 0 1 0 0 8.133 4.067 4.067 0 0 0 0-8.133zm0 1.2a2.867 2.867 0 1 1 0 5.733 2.867 2.867 0 0 1 0-5.733zM13.211 4.4c1.913 0 3.458 1.585 3.458 3.533a3.555 3.555 0 0 1-1.414 2.85l-.053.037c2.098.88 3.311 2.514 3.58 4.857l.027.274a.6.6 0 0 1-1.196.098c-.211-2.575-1.67-4.073-4.51-4.592-.718-.132-.622-1.19.108-1.19 1.243 0 2.258-1.042 2.258-2.334S14.454 5.6 13.21 5.6a.6.6 0 1 1 0-1.2z"/><path d="M8.278 10.333A6.667 6.667 0 0 1 14.945 17a.6.6 0 1 1-1.2 0A5.467 5.467 0 1 0 2.81 17a.6.6 0 0 1-1.2 0 6.667 6.667 0 0 1 6.667-6.667z"/></g></svg>