<svg class="icon" viewBox="0 0 1157 1024" xmlns="http://www.w3.org/2000/svg" width="225.977" height="200"><defs><style>@font-face{font-family:element-icons;src:url(chrome-extension://moombeodfomdpjnpocobemoiaemednkg/fonts/element-icons.woff) format(&quot;woff&quot;),url(&quot;chrome-extension://moombeodfomdpjnpocobemoiaemednkg/fonts/element-icons.ttf &quot;) format(&quot;truetype&quot;)}@font-face{font-family:feedback-iconfont;src:url(//at.alicdn.com/t/font_1031158_u69w8yhxdu.woff2?t=1630033759944) format(&quot;woff2&quot;),url(//at.alicdn.com/t/font_1031158_u69w8yhxdu.woff?t=1630033759944) format(&quot;woff&quot;),url(//at.alicdn.com/t/font_1031158_u69w8yhxdu.ttf?t=1630033759944) format(&quot;truetype&quot;)}</style></defs><path d="M0 1024v-60.238h86.817V120.476C86.817 53.96 138.641 0 202.574 0h405.148c63.933 0 115.756 53.96 115.756 120.476v240.951h231.513c63.934 0 115.757 53.916 115.757 120.476v481.86h86.817V1024H0zm665.6-903.524c0-33.302-25.912-60.238-57.878-60.238H202.574c-31.967 0-57.878 26.936-57.878 60.238v843.286H665.6V120.476zm347.27 361.427c0-33.302-25.912-60.238-57.879-60.238H723.478v542.097h289.392V481.903zm-57.88 150.573H781.357v-60.238H954.99v60.238zm0 180.714H781.357v-60.238H954.99v60.238zM376.21 331.286H202.574v-60.238h173.635v60.238zm0 180.714H202.574v-60.238h173.635V512zm0 180.714H202.574v-60.238h173.635v60.238zm231.513-361.428H434.087v-60.238h173.635v60.238zm0 180.714H434.087v-60.238h173.635V512zm0 180.714H434.087v-60.238h173.635v60.238z"/></svg>