<svg width="20" height="20" xmlns="http://www.w3.org/2000/svg"><g><path d="M10 6.73a3.1 3.1 0 1 0 0 6.2 3.1 3.1 0 0 0 0-6.2zm0 1.2a1.9 1.9 0 1 1 0 3.8 1.9 1.9 0 0 1 0-3.8z"/><path d="M9 1.4l-.146.007A1.6 1.6 0 0 0 7.4 3l-.001.934-.189.083c-.48.224-.931.506-1.344.837l-.135.114-.764-.442a1.6 1.6 0 0 0-2.186.585l-.778 1.347-.07.138a1.6 1.6 0 0 0 .656 2.048l.867.501-.025.207c-.02.214-.031.43-.031.648l.006.295c.01.196.026.39.052.583l.02.134-.889.513a1.6 1.6 0 0 0-.586 2.186l.778 1.347.083.13a1.6 1.6 0 0 0 2.103.456l.885-.512.177.14c.358.27.742.503 1.148.695l.222.099L7.4 17A1.6 1.6 0 0 0 9 18.6h2l.146-.007A1.6 1.6 0 0 0 12.6 17v-.934l.182-.08c.378-.176.74-.387 1.078-.632l.152-.116.701.406a1.6 1.6 0 0 0 2.186-.586l.778-1.347.07-.137a1.6 1.6 0 0 0-.656-2.048l-.599-.347.035-.192c.048-.324.073-.654.073-.987l-.007-.298a6.633 6.633 0 0 0-.052-.588l-.023-.14.573-.33a1.6 1.6 0 0 0 .586-2.186l-.778-1.347-.083-.13a1.6 1.6 0 0 0-2.103-.455l-.577.333-.174-.138a6.598 6.598 0 0 0-1.142-.69l-.22-.098V3A1.6 1.6 0 0 0 11 1.4H9zm0 1.2h2c.22 0 .4.18.4.4v1.766l.4.141c.691.244 1.324.628 1.862 1.125l.325.3 1.327-.767a.4.4 0 0 1 .546.146l.777 1.347a.4.4 0 0 1-.146.547l-1.322.764.097.431a5.42 5.42 0 0 1-.032 2.534l-.112.44 1.369.79a.4.4 0 0 1 .146.547l-.777 1.347a.4.4 0 0 1-.547.147l-1.43-.827-.324.283a5.395 5.395 0 0 1-1.759 1.032l-.4.141V17a.4.4 0 0 1-.4.4H9a.4.4 0 0 1-.4-.4v-1.766l-.4-.141a5.398 5.398 0 0 1-1.871-1.133l-.325-.301-1.637.946a.4.4 0 0 1-.547-.147l-.777-1.347a.4.4 0 0 1 .146-.546l1.639-.945-.097-.431a5.42 5.42 0 0 1-.029-2.241l.084-.422-1.597-.921a.4.4 0 0 1-.146-.547l.777-1.347a.4.4 0 0 1 .547-.146l1.536.888.326-.318a5.401 5.401 0 0 1 1.97-1.228l.4-.141L8.6 3a.4.4 0 0 1 .4-.4z"/></g></svg>