<svg width="20" height="20" xmlns="http://www.w3.org/2000/svg"><path d="M15.519 3.4h-11a1.6 1.6 0 0 0-1.6 1.6v8a1.6 1.6 0 0 0 1.6 1.6h11a1.6 1.6 0 0 0 1.6-1.6V5a1.6 1.6 0 0 0-1.6-1.6zm-11 1.2h11c.22 0 .4.18.4.4v8a.4.4 0 0 1-.4.4h-11a.4.4 0 0 1-.4-.4V5a.4.4 0 0 1 .4-.4z"/><path d="M10.6 14v3.035H9.4V14z"/><path d="M13 16.417a.6.6 0 0 1 .097 1.193l-.097.007H7a.6.6 0 0 1-.097-1.192L7 16.417h6zm.842-9.102a.6.6 0 0 0-.766-.07l-.083.07-1.844 1.844-1.636-1.575a.6.6 0 0 0-.759-.06l-.082.068-2.55 2.55a.6.6 0 0 0 .766.918l.083-.07 2.133-2.133 1.637 1.575a.6.6 0 0 0 .758.06l.082-.068 2.26-2.26a.6.6 0 0 0 0-.85z"/></svg>