<svg width="20" height="20" xmlns="http://www.w3.org/2000/svg"><path d="M11.64 3.4H4.76A1.6 1.6 0 0 0 3.16 5v12.6h10.08V5a1.6 1.6 0 0 0-1.6-1.6zm0 1.2l.082.008A.4.4 0 0 1 12.04 5l-.001 11.4H4.36V5c0-.22.18-.4.4-.4h6.88z"/><path d="M12.04 7.4v10.2h5.2V8.5a1.1 1.1 0 0 0-1.1-1.1h-4.1zm4 1.2v7.8h-2.8V8.6h2.8z"/><path d="M17.672 16.417a.6.6 0 0 1 .097 1.193l-.097.007H2.853a.6.6 0 0 1-.097-1.192l.097-.008h14.819zM9.84 13.035a.6.6 0 0 1 .098 1.192l-.098.008H6.49a.6.6 0 0 1-.097-1.193l.097-.007h3.35zm-.314-5.412a.6.6 0 0 1 .098 1.193l-.098.007H6.741a.6.6 0 0 1-.097-1.192l.097-.008h2.785z"/><path d="M8.136 6.15a.6.6 0 0 1 .592.503l.008.098v2.857a.6.6 0 0 1-1.193.098l-.007-.098V6.751a.6.6 0 0 1 .6-.6z"/></svg>