<svg class="icon" viewBox="0 0 1024 1024" xmlns="http://www.w3.org/2000/svg" width="200" height="200"><defs><style>@font-face{font-family:element-icons;src:url(chrome-extension://moombeodfomdpjnpocobemoiaemednkg/fonts/element-icons.woff) format(&quot;woff&quot;),url(&quot;chrome-extension://moombeodfomdpjnpocobemoiaemednkg/fonts/element-icons.ttf &quot;) format(&quot;truetype&quot;)}@font-face{font-family:feedback-iconfont;src:url(//at.alicdn.com/t/font_1031158_u69w8yhxdu.woff2?t=1630033759944) format(&quot;woff2&quot;),url(//at.alicdn.com/t/font_1031158_u69w8yhxdu.woff?t=1630033759944) format(&quot;woff&quot;),url(//at.alicdn.com/t/font_1031158_u69w8yhxdu.ttf?t=1630033759944) format(&quot;truetype&quot;)}</style></defs><path d="M873.193 177.105v504.553H151.738V177.105zM93.09 681.658a59.345 59.345 0 0 0 57.716 60.742h721.455a55.855 55.855 0 0 0 40.727-17.92 61.673 61.673 0 0 0 17.92-42.822V177.105a59.345 59.345 0 0 0-57.716-60.741H151.738a56.087 56.087 0 0 0-40.727 17.687 62.37 62.37 0 0 0-17.92 43.054zm687.942 202.706a29.556 29.556 0 0 0 28.858-30.255v-1.396a31.884 31.884 0 0 0-8.378-21.644 28.858 28.858 0 0 0-20.48-8.844H242.967a29.79 29.79 0 0 0-28.858 30.488v1.396a29.556 29.556 0 0 0 28.858 30.255zm-298.59-61.44h57.717V742.4h-56.32zm-213.41-323.957l144.523-141.963 24.67 27.694-144.524 141.964zm282.996 0L696.32 357.004l25.135 27.694-144.291 141.964zm-30.254 3.724L442.182 409.6a43.985 43.985 0 1 1 29.323-41.658A46.545 46.545 0 0 1 468.713 384l80.29 94.487a39.564 39.564 0 0 1 31.884 4.19 43.753 43.753 0 0 1 20.713 37.701 41.658 41.658 0 1 1-83.084 0 46.545 46.545 0 0 1 3.259-17.687zM239.942 512a41.658 41.658 0 1 1 41.658 43.753A42.59 42.59 0 0 1 239.942 512zm439.622-154.996a41.658 41.658 0 1 1 41.89 43.52 42.59 42.59 0 0 1-41.89-43.52z"/></svg>