<svg class="icon" viewBox="0 0 1024 1024" xmlns="http://www.w3.org/2000/svg" width="200" height="200"><defs><style>@font-face{font-family:element-icons;src:url(chrome-extension://moombeodfomdpjnpocobemoiaemednkg/fonts/element-icons.woff) format(&quot;woff&quot;),url(&quot;chrome-extension://moombeodfomdpjnpocobemoiaemednkg/fonts/element-icons.ttf &quot;) format(&quot;truetype&quot;)}@font-face{font-family:feedback-iconfont;src:url(//at.alicdn.com/t/font_1031158_u69w8yhxdu.woff2?t=1630033759944) format(&quot;woff2&quot;),url(//at.alicdn.com/t/font_1031158_u69w8yhxdu.woff?t=1630033759944) format(&quot;woff&quot;),url(//at.alicdn.com/t/font_1031158_u69w8yhxdu.ttf?t=1630033759944) format(&quot;truetype&quot;)}</style></defs><path d="M589.6 364.3c3 5 8.7 7.7 14.5 7l25.2-3.1c9.4-1.1 15.3-10.7 12.3-19.6l-28.4-82.8c-2.1-6-7.7-10.1-14.1-10.1H292.9c-6.2 0-11.7 3.8-13.9 9.5l-32 82.9c-3.5 9.2 2.6 19.2 12.4 20.2l28.8 2.9c5.8.6 11.4-2.2 14.4-7.3l1.6-2.8c20.2-34.2 31.2-42.8 35-44.9 3.9-2.2 16.6-7.2 51.7-7.2 3.3 0 6 0 8.3.1V574c-1.9.2-4.5.5-8.3.5h-33.5c-8.2 0-14.9 6.7-14.9 14.9v21.8c0 8.2 6.7 14.9 14.9 14.9h173.9c8.2 0 14.9-6.7 14.9-14.9v-21.8c0-8.2-6.7-14.9-14.9-14.9h-33.5c-3.7 0-6.5-.3-8.3-.8V309.4c4.3-.1 10-.2 17.8-.2 36.3 0 45.3 5.9 46.2 6.6 3.4 2.5 13.4 12 34.4 45.8l1.7 2.7z"/><path d="M880 112H144c-17.6 0-32 14.4-32 32v736c0 17.6 14.4 32 32 32h422.1c8.8 0 16-7.2 16-16v-40c0-8.8-7.2-16-16-16H184V184h656v389.6c0 8.8 7.2 16 16 16h40c8.8 0 16-7.2 16-16V144c0-17.6-14.4-32-32-32z"/><path d="M895.6 703.4h-97.8v-97.8c0-8.8-7.2-16-16-16H722c-8.8 0-16 7.2-16 16v97.8h-97.8c-8.8 0-16 7.2-16 16v59.8c0 8.8 7.2 16 16 16H706V893c0 8.8 7.2 16 16 16h59.8c8.8 0 16-7.2 16-16v-97.8h97.8c8.8 0 16-7.2 16-16v-59.8c0-8.8-7.2-16-16-16z"/></svg>