<svg width="20" height="20" xmlns="http://www.w3.org/2000/svg"><g><path d="M10.55 2.2H5.184a1.1 1.1 0 0 0-1.1 1.1v13.666a1.1 1.1 0 0 0 1.1 1.1h10.6a1.1 1.1 0 0 0 1.1-1.1V8.202a1.6 1.6 0 0 0-.511-1.171l-4.734-4.403a1.6 1.6 0 0 0-1.09-.429zM5.284 16.865V3.399h5.266a.4.4 0 0 1 .272.107l4.734 4.403.054.062a.4.4 0 0 1 .073.231v8.664H5.284z"/><path d="M11.543 2.767v4a.4.4 0 0 0 .32.391l.08.009h4v1.2h-4a1.6 1.6 0 0 1-1.594-1.455l-.006-.145v-4h1.2zM13.025 13.371a.6.6 0 0 1 .097 1.192l-.097.008H7.443a.6.6 0 0 1-.097-1.192l.097-.008h5.582zM13.025 10.371a.6.6 0 0 1 .097 1.192l-.097.008H7.443a.6.6 0 0 1-.097-1.192l.097-.008h5.582zM8.814 7.371a.6.6 0 0 1 .098 1.192l-.098.008H7.443a.6.6 0 0 1-.097-1.192l.097-.008h1.371z"/></g></svg>