<svg width="20" height="20" xmlns="http://www.w3.org/2000/svg"><path d="M9.125 2.47L3.348 5.358a1.1 1.1 0 0 0-.608.984v8.048c0 .417.236.798.608.984l5.777 2.888a1.6 1.6 0 0 0 1.43 0l5.777-2.888a1.1 1.1 0 0 0 .608-.984V6.342a1.1 1.1 0 0 0-.608-.984L10.556 2.47a1.6 1.6 0 0 0-1.431 0zm6.615 3.934v7.924l-5.72 2.861-.07.027a.4.4 0 0 1-.289-.027l-5.72-2.86V6.403l5.72-2.86a.4.4 0 0 1 .358 0l5.721 2.86z"/><path d="M3.735 6.439a.6.6 0 0 1 .716-.302l.09.036 5.57 2.812a.6.6 0 0 1-.45 1.108l-.091-.037L4 7.245a.6.6 0 0 1-.265-.806z"/><path d="M15.945 6.439a.6.6 0 0 0-.715-.302l-.09.036-5.57 2.812a.6.6 0 0 0 .45 1.108l.09-.037 5.57-2.811a.6.6 0 0 0 .265-.806z"/><path d="M9.84 8.92a.6.6 0 0 1 .592.503l.008.097v7.948a.6.6 0 0 1-1.192.097l-.008-.097V9.52a.6.6 0 0 1 .6-.6zM6.59 7.837a.6.6 0 0 1 .592.503l.008.097v2.572a.6.6 0 0 1-1.192.097l-.008-.097V8.437a.6.6 0 0 1 .6-.6z"/></svg>