<svg width="16" height="16" xmlns="http://www.w3.org/2000/svg"><path d="M6.375 6.906h7.5A.125.125 0 0 0 14 6.781v-.875a.125.125 0 0 0-.125-.125h-7.5a.125.125 0 0 0-.125.125v.875c0 .069.056.125.125.125zm-.125 3.188c0 .069.056.125.125.125h7.5a.125.125 0 0 0 .125-.125v-.875a.125.125 0 0 0-.125-.125h-7.5a.125.125 0 0 0-.125.125v.875zM14.125 2.5H1.875a.125.125 0 0 0-.125.125V3.5c0 .069.056.125.125.125h12.25a.125.125 0 0 0 .125-.125v-.875a.125.125 0 0 0-.125-.125zm0 9.875H1.875a.125.125 0 0 0-.125.125v.875c0 .069.056.125.125.125h12.25a.125.125 0 0 0 .125-.125V12.5a.125.125 0 0 0-.125-.125zM1.803 8.108l2.442 1.923c.09.072.225.008.225-.108V6.077a.138.138 0 0 0-.225-.108L1.803 7.892a.137.137 0 0 0 0 .216z"/></svg>