<?xml version="1.0" standalone="no"?><!DOCTYPE svg PUBLIC "-//W3C//DTD SVG 1.1//EN" "http://www.w3.org/Graphics/SVG/1.1/DTD/svg11.dtd"><svg t="1648098302039" class="icon" viewBox="0 0 1024 1024" version="1.1" xmlns="http://www.w3.org/2000/svg" p-id="5965" xmlns:xlink="http://www.w3.org/1999/xlink" width="200" height="200"><defs><style type="text/css">@font-face { font-family: element-icons; src: url("chrome-extension://moombeodfomdpjnpocobemoiaemednkg/fonts/element-icons.woff") format("woff"), url("chrome-extension://moombeodfomdpjnpocobemoiaemednkg/fonts/element-icons.ttf ") format("truetype"); }
@font-face { font-family: feedback-iconfont; src: url("//at.alicdn.com/t/font_1031158_u69w8yhxdu.woff2?t=1630033759944") format("woff2"), url("//at.alicdn.com/t/font_1031158_u69w8yhxdu.woff?t=1630033759944") format("woff"), url("//at.alicdn.com/t/font_1031158_u69w8yhxdu.ttf?t=1630033759944") format("truetype"); }
</style></defs><path d="M768 597.333333 597.333333 597.333333 597.333333 768 426.666667 768 426.666667 597.333333 256 597.333333 256 426.666667 426.666667 426.666667 426.666667 256 597.333333 256 597.333333 426.666667 768 426.666667M810.666667 128 213.333333 128C165.973333 128 128 165.973333 128 213.333333L128 810.666667C128 857.6 166.4 896 213.333333 896L810.666667 896C857.6 896 896 857.6 896 810.666667L896 213.333333C896 165.973333 857.6 128 810.666667 128Z" p-id="5966"></path></svg>