<svg id="图层_1" data-name="图层 1" xmlns="http://www.w3.org/2000/svg" viewBox="0 0 331.87 128"><defs><style>.cls-1{fill:#fff;}</style></defs><title>logo-无股权代码</title><path class="cls-1" d="M40.2,83.16v47.71a6.59,6.59,0,0,0,6.59,6.59h3.83V142H14.93v-4.54H18.1a6.59,6.59,0,0,0,6.59-6.59V83.16a6.59,6.59,0,0,0-6.59-6.59H14.93V72.16H50.62v4.41H46.79A6.59,6.59,0,0,0,40.2,83.16Z" transform="translate(-14.93 -14)"/><path class="cls-1" d="M155.32,137.46V142H119.9v-4.54h4.74a6.07,6.07,0,0,0,6.06-6.06v-.26a2.45,2.45,0,0,0,0-.27v-.09l-2.32-33,0-.47-.83-11.86-8.07,18.11-1.69,3.79-8.63,19.38-4.77,10.71-2,4.54H99.64l-2.09-4.51,0,0h0l-1.18-2.55-2.68-5.77L73.78,86.25l-2.72,44.84c0,.1,0,.21,0,.31a6.06,6.06,0,0,0,6.06,6.06h3.43V142H55.6v-4.54h2.63a6.59,6.59,0,0,0,6.57-6.15v-.17l3-49v0c0-.09,0-.18,0-.27a5.31,5.31,0,0,0-5.31-5.31H60.1V72.16H83.78l2,4.41,18.65,40.19,1.17,2.55,2.92-6.54,16.12-36.2,1.88-4.22.09-.19h24.16v4.41h-3a5.31,5.31,0,0,0-5.31,5.31,2.62,2.62,0,0,0,0,.28l.36,5.33L143,89.1l2.9,42.78a5.87,5.87,0,0,0,5.87,5.58Z" transform="translate(-14.93 -14)"/><path class="cls-1" d="M346.8,137.46V142H308.52v-4.54h5a2.88,2.88,0,0,0,2.39-4.49,1,1,0,0,0-.08-.11c-1.43-2-2.92-3.94-4.45-5.84a139.52,139.52,0,0,0-13.29-14.31l-.27-.26-.05,0a.12.12,0,0,0-.05,0l-.39-.38,0,0a11.47,11.47,0,0,0-6.16-2.54v21.4a6.49,6.49,0,0,0,.2,1.6h0a6.58,6.58,0,0,0,6.39,5h3.87V142H265.89v-4.54h3.17a6.59,6.59,0,0,0,6.59-6.59V83.16a6.48,6.48,0,0,0-.78-3.1,6.58,6.58,0,0,0-5.81-3.49h-3.17V72.16h35.68v4.41H297.7a6.59,6.59,0,0,0-6.59,6.59v22.55a29.14,29.14,0,0,0,10.68-4.92h0a31,31,0,0,0,2.43-2h0q.5-.45,1-.93l.67-.69a59.24,59.24,0,0,0,10.27-14.26l.1-.2a4.29,4.29,0,0,0-2.44-5.9,4.16,4.16,0,0,0-1.42-.25h-3.52V72.16h30v4.41H336.2A14.19,14.19,0,0,0,324,83.42a99.91,99.91,0,0,1-15.45,19.16l-.26.25a15,15,0,0,1,2.43,1.75l0,0,0,0,0,0h0l.05,0,.38.36.18.17a139.72,139.72,0,0,1,20.36,24.52A16.78,16.78,0,0,0,346,137.46Z" transform="translate(-14.93 -14)"/><path class="cls-1" d="M226.1,124.37l-.39,5.17-.47,6.31-.12,1.61-.34,4.54h-64v-4.54H164a6.6,6.6,0,0,0,6.59-6.59V83.16a6.57,6.57,0,0,0-1.13-3.69,6.84,6.84,0,0,0-1-1.12,6.57,6.57,0,0,0-4-1.75l.05,0H160.8V72.16h60.68l.31,4.34v.07l.12,1.78.72,10.09h-4.28L217.63,84l0-.13a6.58,6.58,0,0,0-6.49-5.5H186v25.26h20A6.59,6.59,0,0,0,212.64,97v-1.5h4.51v22.33h-4.51v-1.63h0a6.58,6.58,0,0,0-6.58-6.47H186v22.41a3.68,3.68,0,0,0,3.68,3.69h21.41a9.88,9.88,0,0,0,9.44-7l0-.17v0l1.27-4.3Z" transform="translate(-14.93 -14)"/><path class="cls-1" d="M256.22,72.84c0-.23-.05-.46-.09-.68a10,10,0,0,0-.36-1.53h0a10.85,10.85,0,0,0-2.67-4.38,10.62,10.62,0,0,0-2-1.61l-.45-.26h0l-.47-.24c-.32-.15-.64-.29-1-.41l-.25-.09a10.91,10.91,0,0,0-7,0,11,11,0,0,0-1.46.62h0l-.46.25h0a10.92,10.92,0,0,0-3.89,3.81,10.56,10.56,0,0,0-1.41,3.84,10.23,10.23,0,0,0-.15,1.77,10.91,10.91,0,0,0,.32,2.64h0a10.32,10.32,0,0,0,1,2.56h0A11,11,0,0,0,240,83.34h0l.46.26h0a12.48,12.48,0,0,0,1.46.61,10.87,10.87,0,0,0,3.49.57,11.05,11.05,0,0,0,3.22-.48c.17-.06.34-.11.5-.18a8.44,8.44,0,0,0,1-.41l.38-.19.09,0h0l.45-.26a10.62,10.62,0,0,0,2-1.61,10.77,10.77,0,0,0,2-2.76h0a10.3,10.3,0,0,0,.85-2.27h0a10.91,10.91,0,0,0,.33-2.64A9.82,9.82,0,0,0,256.22,72.84Zm-9.51,10h-2.58V75.21h-7.57V72.64h7.57V65.07h2.58v7.57h7.58v2.57h-7.58Z" transform="translate(-14.93 -14)"/><path class="cls-1" d="M231.63,100.12l7.5-2.51,11.69-3.91h2v38.75a5.94,5.94,0,0,0,5.94,5.94h.91V142H231.63v-3.61h1.94a5.56,5.56,0,0,0,5.56-5.56V107.92a3.29,3.29,0,0,0-2.11-3.07l-.07,0-5.32-2Z" transform="translate(-14.93 -14)"/><path class="cls-1" d="M59.69,60.37a81.24,81.24,0,0,1-18.27-5,84.38,84.38,0,0,1-17.73,5.33L22,56.47a76.37,76.37,0,0,0,14.76-3.56,30.11,30.11,0,0,1-7.35-6.42,40.33,40.33,0,0,1-4.59,5.33,84.36,84.36,0,0,1-6.37,5.58l-2.37-3.85a50.23,50.23,0,0,0,7.77-7A30.59,30.59,0,0,0,28.73,39H19.1V35.23H30.16q.39-1.08,1-3.45l4.49.44c-.3,1.22-.56,2.22-.79,3H59.39V39H33.57a34.28,34.28,0,0,1-1.49,3.21H55.19v3.45a36.82,36.82,0,0,1-9,7.26,92.45,92.45,0,0,0,15,3.16ZM23.1,30.64V34H18.85V26.84h6.67c-.56-1.51-1-2.68-1.43-3.51l4.24-1c1.12,2.66,1.76,4.18,1.93,4.54h7.16c-.76-2.31-1.24-3.72-1.44-4.25l4.35-1q.73,1.73,1.88,5.28h5.23q1.73-2.67,3.51-6l4.29,1.29c-.72,1.35-1.63,2.91-2.71,4.69h7V34h-4.4V30.64ZM58.5,19.48q-7.45.8-18.12,1.43t-20.44,1l-.3-4q9.87-.3,20.57-.89T58,15.63ZM34.06,45.9A24.28,24.28,0,0,0,41.32,51,30.37,30.37,0,0,0,49,45.9Z" transform="translate(-14.93 -14)"/><path class="cls-1" d="M95,48.17q4.74,5.47,18.76,7.51l-1.87,4.49q-15.17-2.62-20.59-9.93a18,18,0,0,1-7.11,5.9,50.93,50.93,0,0,1-13.48,4.18l-1.93-4.4a47.12,47.12,0,0,0,12.12-3.21,14.51,14.51,0,0,0,6-4.54H69.66v-3.9H88.52l.1-1.09c.13-1.18.2-2,.2-2.32h4.94c0,.36-.07,1.14-.2,2.32l-.1,1.09H113v3.9Zm17.28-12.34v4h-42v-4H88.92V32.12h-16V28.27h16V24.52H71.24v-3.9H82c-1.9-2.14-3.14-3.49-3.7-4.05l3.31-2.52,5.18,5.38-1.62,1.19h10c2.27-2.67,4-4.87,5.28-6.62l4,2.17c-.92,1.25-2.12,2.74-3.6,4.45h10.66v3.9H93.76v3.75h16v3.85h-16v3.71Z" transform="translate(-14.93 -14)"/><path class="cls-1" d="M166.44,41.06l-.89,4.35A88.8,88.8,0,0,1,143.88,40a88.14,88.14,0,0,1-22,6l-1.18-4.4a90.67,90.67,0,0,0,18.07-3.95,55.83,55.83,0,0,1-6.37-4.05,43.77,43.77,0,0,1-6.17,4.1l-2.37-3.55a36.84,36.84,0,0,0,7.06-4.57,31.88,31.88,0,0,0,5.83-5.8l3.9,1.48c-.37.53-1,1.28-1.83,2.27h19.7v3.7a58.81,58.81,0,0,1-9.78,6.47A93.4,93.4,0,0,0,166.44,41.06ZM128.37,23.33v5.39h-4.59V19.18h18.07c-.46-1.05-1.12-2.33-2-3.85L145,14.1q1.29,2.82,2.13,5.08h17.13v9.58h-4.59V23.33ZM132.91,60h-4.49V45h31.16V60h-4.5V58.09H132.91Zm22.17-5.63V49H132.91v5.38ZM135.93,31.28a38,38,0,0,0,7.7,4.5,40.07,40.07,0,0,0,8.05-4.5Z" transform="translate(-14.93 -14)"/></svg>