<?xml version="1.0" encoding="UTF-8"?>
<svg width="168px" height="23px" viewBox="0 0 168 23" version="1.1" xmlns="http://www.w3.org/2000/svg" xmlns:xlink="http://www.w3.org/1999/xlink">
    <title>logo</title>
    <defs>
        <polygon id="path-1" points="0 0 10.126183 0 10.126183 20.0562751 0 20.0562751"></polygon>
        <polygon id="path-3" points="0 0 6.15938639 0 6.15938639 6.23432312 0 6.23432312"></polygon>
        <polygon id="path-5" points="0 0 20.2680123 0 20.2680123 20.5107091 0 20.5107091"></polygon>
    </defs>
    <g id="20220402确定版本" stroke="none" stroke-width="1" fill="none" fill-rule="evenodd">
        <g id="4-医生列表" transform="translate(-24.000000, -14.000000)">
            <g id="logo" transform="translate(24.000000, 14.000000)">
                <g id="编组" transform="translate(0.000000, 2.609087)">
                    <mask id="mask-2" fill="white">
                        <use xlink:href="#path-1"></use>
                    </mask>
                    <g id="Clip-2"></g>
                    <path d="M7.16877663,3.1600459 L7.16877663,16.8594426 C7.16877663,17.9042611 8.00562187,18.7511518 9.03804708,18.7511518 L10.126183,18.7511518 L10.126183,20.0562751 L-0.00011853332,20.0562751 L-0.00011853332,18.7511518 L0.898364029,18.7511518 C1.93078924,18.7511518 2.76763448,17.9042611 2.76763448,16.8594426 L2.76763448,3.1600459 C2.76763448,2.11522748 1.93078924,1.26833678 0.898364029,1.26833678 L-0.00011853332,1.26833678 L-0.00011853332,0 L10.126183,0 L10.126183,1.26833678 L9.03804708,1.26833678 C8.00562187,1.26833678 7.16877663,2.11522748 7.16877663,3.1600459" id="Fill-1" fill="#FFFFFF" mask="url(#mask-2)"></path>
                </g>
                <path d="M39.83652,21.3603188 L39.83652,22.6654422 L29.7860798,22.6654422 L29.7860798,21.3603188 L31.1302477,21.3603188 C32.0789093,21.3603188 32.8493759,20.5818032 32.8493759,19.6217538 C32.8493759,19.6021609 32.8493759,19.582968 32.8481906,19.5633751 L32.8470052,19.5533788 L32.8470052,19.5461814 C32.846215,19.5205907 32.8450297,19.4950001 32.8422639,19.4694094 L32.8402883,19.4438188 L32.1836138,9.97287773 L32.1745262,9.83812694 L31.9386449,6.43137115 L29.6497665,11.6322717 L29.1701017,12.7218738 L26.7208082,18.285042 L25.3679479,21.3603188 L24.7930613,22.6654422 L24.0360285,22.6654422 L23.4429668,21.3715148 L23.4481032,21.3603188 L23.4378303,21.3603188 L23.102381,20.6285861 L22.3429776,18.9735905 L16.6980258,6.65568923 L15.9255837,19.5317867 C15.9243983,19.5613758 15.9236081,19.5921646 15.9236081,19.6217538 C15.9236081,20.5818032 16.6928893,21.3603188 17.641551,21.3603188 L18.6174753,21.3603188 L18.6174753,22.6654422 L11.5394557,22.6654422 L11.5394557,21.3603188 L12.2866107,21.3603188 C13.2759689,21.3603188 14.0863416,20.5818032 14.1511399,19.5961631 L14.1539056,19.5469811 L14.9978629,5.48451696 L14.9978629,5.4781193 C14.9990482,5.4529285 14.9998384,5.42733784 14.9998384,5.40174719 C14.9998384,4.56005459 14.3253838,3.87750387 13.493675,3.87750387 L12.8172449,3.87750387 L12.8172449,2.60916709 L19.5361086,2.60916709 L20.1177121,3.87750387 L25.4082492,15.4188888 L25.7421181,16.1482224 L26.5686904,14.270908 L31.1432863,3.87750387 L31.6774765,2.66314737 L31.7015783,2.60916709 L38.5579406,2.60916709 L38.5579406,3.87750387 L37.6989691,3.87750387 C36.8672603,3.87750387 36.1924106,4.56005459 36.1924106,5.40174719 C36.1924106,5.4285374 36.193596,5.4537282 36.1947813,5.48011857 L36.2967199,7.01075955 L36.3275386,7.47499 L37.150555,19.7605031 C37.1948074,20.6521775 37.9237873,21.3603188 38.8159481,21.3603188 L39.83652,21.3603188 Z" id="Fill-3" fill="#FFFFFF"></path>
                <path d="M94.1697835,21.3603188 L94.1697835,22.6654422 L83.3089705,22.6654422 L83.3089705,21.3603188 L84.7183317,21.3603188 C85.1691534,21.3603188 85.5350262,20.9908538 85.5350262,20.5350203 C85.5350262,20.3634829 85.4836618,20.204341 85.3959471,20.0727891 C85.3876498,20.0611933 85.3809329,20.0499974 85.3726356,20.040001 C84.9664614,19.4686097 84.5448779,18.909214 84.1094655,18.3626137 C82.9490243,16.9043462 81.68862,15.5328471 80.3393157,14.254514 C80.3140286,14.2301229 80.2879513,14.205332 80.261874,14.1809409 C80.2579229,14.1769423 80.2535766,14.1729438 80.2496255,14.169745 C80.2448842,14.1657464 80.240538,14.1605483 80.2357966,14.1553502 C80.1982611,14.1197632 80.1599353,14.0841762 80.1227949,14.0485892 C80.1208193,14.0501886 80.1184487,14.0525878 80.1164731,14.0533875 C79.6296963,13.6523339 79.027547,13.38923 78.3673164,13.3248535 L78.3673164,19.4686097 C78.3673164,19.6277516 78.3866769,19.7828949 78.422632,19.9296413 L78.4238173,19.9296413 C78.6265093,20.752141 79.3614159,21.3603188 80.2365869,21.3603188 L81.3346005,21.3603188 L81.3346005,22.6654422 L71.2102746,22.6654422 L71.2102746,21.3603188 L72.1099425,21.3603188 C73.1423677,21.3603188 73.9792129,20.5134281 73.9792129,19.4686097 L73.9792129,5.76921298 C73.9792129,5.44653083 73.8997956,5.14344153 73.7595312,4.87833835 C73.4450228,4.28255594 72.8239082,3.87750387 72.1099425,3.87750387 L71.2102746,3.87750387 L71.2102746,2.60916709 L81.3346005,2.60916709 L81.3346005,3.87750387 L80.2365869,3.87750387 C79.2041616,3.87750387 78.3673164,4.72439457 78.3673164,5.76921298 L78.3673164,12.2444481 C79.4803443,11.9833435 80.5068428,11.4955216 81.3990036,10.8321639 L81.4001889,10.8321639 C81.6400214,10.6534292 81.8711613,10.4618991 82.0908431,10.2587733 L82.0920284,10.2587733 C82.0928186,10.2587733 82.0928186,10.259573 82.094004,10.2607726 C82.1856697,10.1728047 82.2761502,10.0832374 82.3662355,9.99247058 C82.4294533,9.92809409 82.4930662,9.86171833 82.5547035,9.79534257 C83.71633,8.58818345 84.7033175,7.21068653 85.4706231,5.69883869 C85.4797107,5.6804454 85.4895885,5.66085256 85.498676,5.64245928 C85.5753276,5.48011857 85.6187898,5.29978443 85.6187898,5.10785452 C85.6187898,4.5712505 85.2789943,4.11501712 84.8060463,3.9466786 C84.6800059,3.90189496 84.5440877,3.87750387 84.4026379,3.87750387 L83.403402,3.87750387 L83.403402,2.60916709 L91.9152797,2.60916709 L91.9152797,3.87750387 L91.1610127,3.87750387 C89.6991018,3.87750387 88.4185468,4.66401662 87.7109029,5.84238626 C86.4777612,7.85765025 85.0028116,9.70577528 83.3279358,11.3443768 C83.3038341,11.3687679 83.2797323,11.3923593 83.2544452,11.4155508 C83.5005994,11.5618974 83.7313442,11.7302359 83.9431238,11.9197667 C83.9458895,11.9229655 83.9490504,11.9257645 83.9522113,11.9289633 C83.9541869,11.9301629 83.9549771,11.9309626 83.9569526,11.9329619 C83.9612989,11.9361607 83.96525,11.9401592 83.9692011,11.9441578 C83.9711766,11.9453573 83.972362,11.9465569 83.9743375,11.9485562 C83.979474,11.9525547 83.9842153,11.9565533 83.9893518,11.9617514 C84.025702,11.9965387 84.0608669,12.0301264 84.0964269,12.0649137 C84.1134166,12.0809078 84.1304064,12.0973019 84.1477913,12.1148954 C86.327619,14.2257245 88.2684046,16.5880618 89.92392,19.1563238 C90.774199,20.4826394 92.2499388,21.3603188 93.9287657,21.3603188 L94.1697835,21.3603188 Z" id="Fill-5" fill="#FFFFFF"></path>
                <path d="M59.9190276,17.6012917 L59.8091868,19.0879487 L59.6760343,20.8980877 L59.6420548,21.3603188 L59.5460428,22.6654422 L41.3918747,22.6654422 L41.3918747,21.3603188 L42.289567,21.3603188 C42.7573785,21.3603188 43.186074,21.1855827 43.5136211,20.8980877 C43.9087322,20.5510144 44.1588375,20.040001 44.1588375,19.4686097 L44.1588375,5.76921298 C44.1588375,5.37615653 44.0410944,5.01108986 43.8384024,4.70880026 C43.7597753,4.59244276 43.6688997,4.48448219 43.5669611,4.38851724 C43.2647011,4.10302151 42.869195,3.9162897 42.431807,3.88350168 C42.4369434,3.88150241 42.4408946,3.87950314 42.446031,3.87750387 L41.3918747,3.87750387 L41.3918747,2.60916709 L58.6104198,2.60916709 L58.6981344,3.85711132 L58.6989247,3.87750387 L58.7352749,4.38851724 L58.9379669,7.28425966 L57.7241857,7.28425966 L57.515567,6.00392726 L57.5092452,5.9671407 C57.3622639,5.07106796 56.5929827,4.38851724 55.6664472,4.38851724 L48.546941,4.38851724 L48.546941,11.6414683 L54.2325892,11.6414683 C55.2650144,11.6414683 56.1018596,10.7945776 56.1018596,9.74935936 L56.1018596,9.31791693 L57.3812293,9.31791693 L57.3812293,15.7307748 L56.1018596,15.7307748 L56.1018596,15.2637454 L56.1006743,15.2625459 C56.0824992,14.2341215 55.2539513,13.405624 54.2325892,13.405624 L48.546941,13.405624 L48.546941,19.8408738 C48.546941,20.4246606 49.0135671,20.8980877 49.5912195,20.8980877 L55.6664472,20.8980877 C56.9276418,20.8980877 57.9952319,20.0531962 58.3453003,18.8920203 L58.3591291,18.8440378 L58.3614998,18.83804 L58.721446,17.6012917 L59.9190276,17.6012917 Z" id="Fill-7" fill="#FFFFFF"></path>
                <g id="编组" transform="translate(62.323792, 0.000000)">
                    <mask id="mask-4" fill="white">
                        <use xlink:href="#path-3"></use>
                    </mask>
                    <g id="Clip-10"></g>
                    <path d="M3.44418315,5.66093253 L2.71204235,5.66093253 L2.71204235,3.48572695 L0.564613712,3.48572695 L0.564613712,2.74759653 L2.71204235,2.74759653 L2.71204235,0.572390953 L3.44418315,0.572390953 L3.44418315,2.74759653 L5.59595801,2.74759653 L5.59595801,3.48572695 L3.44418315,3.48572695 L3.44418315,5.66093253 Z M6.14437217,2.80597521 C6.13726017,2.73959945 6.12935795,2.67322369 6.11789973,2.6088472 C6.09498329,2.45890197 6.0598184,2.31295527 6.01517085,2.17140696 L6.01517085,2.1702074 C5.86423843,1.68958293 5.60069935,1.26013978 5.25695272,0.912266824 C5.08270874,0.735531371 4.88791899,0.580388032 4.67613945,0.450835347 C4.63386257,0.425644547 4.59158569,0.400053893 4.54812347,0.376462509 C4.54812347,0.375262947 4.54733325,0.376462509 4.54733325,0.376462509 C4.50387103,0.352071417 4.45961859,0.329679595 4.41536615,0.306887919 C4.32528083,0.263303837 4.23282484,0.22331844 4.13799818,0.188531145 C4.11468663,0.180534066 4.09058486,0.171337425 4.06608797,0.163340345 C3.75671601,0.0569791902 3.42521782,-0.000199926983 3.08028586,-0.000199926983 C2.73456368,-0.000199926983 2.40188016,0.0581787521 2.09132287,0.163340345 C1.94908288,0.213322091 1.81079401,0.272500478 1.67764158,0.340875506 L1.67685136,0.340875506 C1.63338914,0.364067036 1.58992693,0.38765842 1.54646471,0.413249074 L1.54567449,0.413249074 C1.09287721,0.677552546 0.711595028,1.05501469 0.441734171,1.50724953 C0.244178638,1.83872846 0.104704432,2.21099251 0.0410915508,2.6088472 C0.0142239983,2.77438675 0,2.94352497 0,3.11706159 C0,3.3793658 0.0323991073,3.63447263 0.0916657671,3.87718398 L0.0928511003,3.87718398 C0.156068871,4.13668921 0.252871082,4.3825994 0.376145734,4.61091601 L0.376935956,4.61091601 C0.648377258,5.11513186 1.05455143,5.53457868 1.54567449,5.82127397 L1.54646471,5.82127397 C1.58992693,5.84646477 1.63338914,5.87005615 1.67685136,5.89364754 C1.67764158,5.89244798 1.67764158,5.89364754 1.67764158,5.89364754 C1.81079401,5.96202257 1.94908288,6.02120095 2.09132287,6.06998314 C2.40188016,6.17634429 2.73456368,6.23432312 3.08028586,6.23432312 C3.39874538,6.23432312 3.70535157,6.18554093 3.99457287,6.09477408 C4.04317153,6.07917978 4.09058486,6.06278577 4.13799818,6.04559204 C4.23282484,6.01080475 4.32528083,5.97121921 4.41536615,5.92723527 C4.45132126,5.90884199 4.48767148,5.89044871 4.52283636,5.87125572 C4.53113369,5.86725718 4.53903591,5.86205907 4.54733325,5.85806053 L4.54812347,5.85806053 C4.59158569,5.83326959 4.63386257,5.8088785 4.67613945,5.78328784 C4.88791899,5.65373516 5.08270874,5.49859182 5.25695272,5.32105666 C5.4849318,5.09074077 5.67853623,4.82323847 5.82670288,4.5285461 L5.82670288,4.52734653 C5.92982686,4.32302116 6.01042952,4.10470089 6.06653529,3.87718398 L6.06772063,3.87718398 C6.12698729,3.63447263 6.15938639,3.3793658 6.15938639,3.11706159 C6.15938639,3.0119 6.15424995,2.90793797 6.14437217,2.80597521 L6.14437217,2.80597521 Z" id="Fill-9" fill="#FFFFFF" mask="url(#mask-4)"></path>
                </g>
                <path d="M61.4878951,10.6383147 L63.618334,9.91777786 L66.9337109,8.79658733 L67.510178,8.79658733 L67.510178,19.9225239 C67.510178,20.5267033 67.8207353,21.0581092 68.2897321,21.3603988 C68.5509005,21.5299369 68.8614578,21.6275013 69.1953267,21.6275013 L69.4533342,21.6275013 L69.4533342,22.6655222 L61.4878951,22.6655222 L61.4878951,21.6275013 L62.0406555,21.6275013 C62.3642515,21.6275013 62.6645359,21.5299369 62.9146412,21.3603988 C63.3389905,21.0737035 63.618334,20.5846821 63.618334,20.0308844 L63.618334,12.879896 C63.618334,12.4768432 63.3686238,12.1321691 63.0173701,11.9962188 L62.999195,11.9894213 L61.4878951,11.4108326 L61.4878951,10.6383147 Z" id="Fill-11" fill="#FFFFFF"></path>
                <g id="编组" transform="translate(100.329130, 2.489291)">
                    <mask id="mask-6" fill="white">
                        <use xlink:href="#path-5"></use>
                    </mask>
                    <g id="Clip-14"></g>
                    <path d="M8.08950395,13.7861651 C8.96348962,14.7158255 10.0524157,15.4955408 11.3566773,16.1253108 C12.7490487,15.4359625 13.8972415,14.6558474 14.8012556,13.7861651 L8.08950395,13.7861651 Z M19.0901862,1.7537595 C16.8526723,1.99367188 14.1343081,2.21119243 10.9339085,2.40592132 C7.73390399,2.60105005 4.6670519,2.75139514 1.73335224,2.85575703 L1.60059492,1.01203039 C4.5635328,0.921263539 7.64856,0.786912606 10.8564667,0.606578467 C14.0639784,0.427044036 16.7270269,0.224717929 18.8456125,0 L19.0901862,1.7537595 Z M3.15614719,6.83670312 L3.15614719,8.34335286 L1.24459985,8.34335286 L1.24459985,5.10493559 L4.24507328,5.10493559 C3.99299242,4.41558735 3.778052,3.88298187 3.60064714,3.50791885 L5.51140425,3.03609117 C6.01477574,4.25044766 6.30399704,4.94019575 6.37827792,5.10493559 L9.60119888,5.10493559 C9.25982292,4.05571878 9.04527761,3.41035448 8.95598251,3.1704421 L10.9121774,2.69861442 C11.1342298,3.22322282 11.4155489,4.02532988 11.7565297,5.10493559 L14.1121819,5.10493559 C14.6305676,4.29483145 15.1564605,3.38836251 15.6902555,2.38312964 L17.6231388,2.96811599 C17.2971722,3.58309139 16.8902078,4.29483145 16.4010603,5.10493559 L19.5346862,5.10493559 L19.5346862,8.34335286 L17.5567602,8.34335286 L17.5567602,6.83670312 L3.15614719,6.83670312 Z M19.6235862,20.3757584 C16.1861199,19.760783 13.4456295,18.9962622 11.4005347,18.0817962 C9.25231581,19.0562403 6.59282323,19.8663445 3.42245205,20.5109091 L2.66699969,18.5992072 C5.11155185,18.2389388 7.32654448,17.6995358 9.31197758,16.9793988 C8.08199683,16.214878 6.97805652,15.2404339 6.00055174,14.0556666 C5.42250426,14.8805654 4.73343056,15.6902696 3.93372576,16.4851793 C3.13362586,17.2796892 2.17785219,18.1265799 1.06640476,19.0262513 L0,17.2720919 C1.42239983,16.1924862 2.58916281,15.1240764 3.50028892,14.0672624 C4.41181015,13.0100485 5.14079007,11.866866 5.68959934,10.6377149 L1.35602118,10.6377149 L1.35602118,8.92793936 L6.33363037,8.92793936 C6.4525588,8.59845969 6.60072545,8.07385129 6.77813032,7.3537143 L8.80070386,7.5560404 C8.66755143,8.11143756 8.548623,8.56807079 8.4451039,8.92793936 L19.4900386,8.92793936 L19.4900386,10.6377149 L7.86705642,10.6377149 C7.65962311,11.1627232 7.43757069,11.6497453 7.20050405,12.099581 L17.6010126,12.099581 L17.6010126,13.6738061 C16.4899603,14.9333461 15.1347293,16.0353436 13.5341344,16.9793988 C15.1635725,17.5200014 17.4085935,17.9998262 20.2680123,18.419273 L19.6235862,20.3757584 Z" id="Fill-13" fill="#FFFFFF" mask="url(#mask-6)"></path>
                </g>
                <path d="M143.642628,11.6876115 L143.642628,13.4869543 L124.753158,13.4869543 L124.753158,11.6876115 L133.108572,11.6876115 L133.108572,10.0010275 L125.908463,10.0010275 L125.908463,8.24606839 L133.108572,8.24606839 L133.108572,6.53749239 L125.15301,6.53749239 L125.15301,4.76014151 L129.997467,4.76014151 C129.1381,3.7856974 128.582574,3.17152171 128.330493,2.91641487 L129.819667,1.76923385 L132.153193,4.22073851 L131.420262,4.76014151 L135.909119,4.76014151 C136.931271,3.54578502 137.723469,2.54175171 138.287292,1.74644217 L140.065292,2.73608074 C139.649635,3.30627249 139.109123,3.98122599 138.442571,4.76014151 L143.242775,4.76014151 L143.242775,6.53749239 L135.286819,6.53749239 L135.286819,8.24606839 L142.487323,8.24606839 L142.487323,10.0010275 L135.286819,10.0010275 L135.286819,11.6876115 L143.642628,11.6876115 Z M135.864866,17.310358 C137.287266,18.9745502 140.101642,20.114134 144.30918,20.7283097 L143.465223,22.7751621 C138.916704,21.9806523 135.827726,20.4740025 134.198288,18.2544132 C133.545564,19.2748405 132.47916,20.1705134 130.997493,20.9422315 C129.516222,21.7143495 127.493648,22.3481181 124.930563,22.8423376 L124.064084,20.8406686 C126.419736,20.4664053 128.238433,19.9789833 129.519778,19.3792024 C130.801123,18.7798213 131.708693,18.0900732 132.242093,17.310358 L124.44181,17.310358 L124.44181,15.5330071 L132.931167,15.5330071 L132.975814,15.0383877 C133.034686,14.4989847 133.064714,14.1463135 133.064714,13.9811738 L135.286819,13.9811738 C135.286819,14.1463135 135.257186,14.4989847 135.198314,15.0383877 L135.153666,15.5330071 L143.95437,15.5330071 L143.95437,17.310358 L135.864866,17.310358 Z" id="Fill-15" fill="#FFFFFF"></path>
                <path d="M154.265939,9.61828723 C155.302711,10.4127971 156.458411,11.0953478 157.733039,11.6647398 C159.066539,11.0953478 160.273998,10.4127971 161.355417,9.61828723 L154.265939,9.61828723 Z M152.910313,20.1216512 L162.888448,20.1216512 L162.888448,17.6697467 L152.910313,17.6697467 L152.910313,20.1216512 Z M152.910313,22.6855149 L150.88774,22.6855149 L150.88774,15.8704039 L164.911022,15.8704039 L164.911022,22.6855149 L162.888448,22.6855149 L162.888448,21.8302272 L152.910313,21.8302272 L152.910313,22.6855149 Z M150.866009,5.99720971 L150.866009,8.44911424 L148.798788,8.44911424 L148.798788,4.10789972 L156.932939,4.10789972 C156.725111,3.62887467 156.428777,3.04388832 156.043939,2.35414023 L158.332818,1.79194555 C158.718051,2.64603362 159.03651,3.41895134 159.288591,4.10789972 L166.999974,4.10789972 L166.999974,8.4711062 L164.933543,8.4711062 L164.933543,5.99720971 L150.866009,5.99720971 Z M168,14.071061 L167.600148,16.050738 C163.688548,15.4957407 160.436389,14.6712418 157.844065,13.5768415 C154.999266,14.821187 151.702854,15.7284557 147.954435,16.2982476 L147.421035,14.2961788 C150.369354,13.9367101 153.080211,13.3369291 155.554792,12.4972358 C154.576892,11.9570331 153.621513,11.3424575 152.687866,10.6531093 C151.828894,11.3424575 150.902359,11.9650302 149.90984,12.5192278 L148.843435,10.9006189 C149.82094,10.4355887 150.880233,9.74224196 152.021313,8.82017872 C153.161999,7.89771562 154.03638,7.01723718 154.644061,6.17754385 L156.399539,6.85209749 C156.236358,7.09200987 155.962546,7.43708385 155.576918,7.88691956 L164.444396,7.88691956 L164.444396,9.57350359 C163.12591,10.6679039 161.658863,11.6499452 160.044044,12.5192278 C162.132996,13.1941813 164.784981,13.7115923 168,14.071061 L168,14.071061 Z" id="Fill-17" fill="#FFFFFF"></path>
            </g>
        </g>
    </g>
</svg>