<svg id="图层_1" data-name="图层 1" xmlns="http://www.w3.org/2000/svg" viewBox="0 0 528 150"><defs><style>.cls-1{fill:#fff;}</style></defs><title>logo-有股权代码</title><path class="cls-1" d="M45.59,78.55V119.3a5.63,5.63,0,0,0,5.63,5.63h3.27v3.88H24v-3.88h2.71a5.62,5.62,0,0,0,5.62-5.63V78.55a5.62,5.62,0,0,0-5.62-5.63H24V69.15H54.49v3.77H51.22A5.63,5.63,0,0,0,45.59,78.55Z"/><path class="cls-1" d="M143.93,124.93v3.88H113.67v-3.88h4a5.17,5.17,0,0,0,5.17-5.18v-.22a1.79,1.79,0,0,0,0-.23v-.07l-2-28.17,0-.4-.71-10.14L113.26,96l-1.44,3.24-7.37,16.55-4.08,9.15-1.73,3.88H96.37L94.58,125l0,0h0l-1-2.18-2.28-4.92-17-36.64L72,119.49v.26a5.17,5.17,0,0,0,5.17,5.18h2.93v3.88H58.75v-3.88H61a5.62,5.62,0,0,0,5.61-5.25v-.15L69.16,77.7h0c0-.08,0-.16,0-.23a4.55,4.55,0,0,0-4.54-4.54h-2V69.15H82.82l1.75,3.77,15.93,34.33,1,2.17,2.49-5.58,13.77-30.92,1.61-3.61.07-.16h20.64v3.77h-2.59A4.54,4.54,0,0,0,133,77.46v.23l.31,4.56.1,1.38,2.47,36.54a5,5,0,0,0,5,4.76Z"/><path class="cls-1" d="M307.48,124.93v3.88h-32.7v-3.88H279a2.46,2.46,0,0,0,2-3.83L281,121c-1.23-1.7-2.49-3.36-3.81-5a118.14,118.14,0,0,0-11.34-12.22l-.24-.22,0,0-.05,0c-.11-.11-.22-.22-.34-.32h0a9.84,9.84,0,0,0-5.27-2.16V119.3a5.65,5.65,0,0,0,.17,1.37h0a5.62,5.62,0,0,0,5.46,4.26h3.3v3.88H238.37v-3.88h2.7a5.63,5.63,0,0,0,5.63-5.63V78.55a5.62,5.62,0,0,0-5.63-5.63h-2.7V69.15h30.47v3.77h-3.3a5.63,5.63,0,0,0-5.63,5.63V97.81a25.06,25.06,0,0,0,9.13-4.2h0a26.12,26.12,0,0,0,2.08-1.7h0l.82-.8.56-.58a50.52,50.52,0,0,0,8.78-12.19l.09-.16a3.72,3.72,0,0,0,.36-1.6,3.66,3.66,0,0,0-2.45-3.45,3.75,3.75,0,0,0-1.21-.21h-3V69.15h25.62v3.77h-2.27A12.12,12.12,0,0,0,288,78.77a85.44,85.44,0,0,1-13.2,16.36,2.28,2.28,0,0,1-.22.22,12.28,12.28,0,0,1,2.07,1.5l0,0,0,0,0,0h0l0,0,.33.31.15.15a119.31,119.31,0,0,1,17.39,20.94,14.34,14.34,0,0,0,12.05,6.56Z"/><path class="cls-1" d="M204.38,113.75l-.33,4.42-.4,5.38-.11,1.38-.28,3.88H148.61v-3.88h2.7a5.63,5.63,0,0,0,5.63-5.63V78.55a5.59,5.59,0,0,0-1-3.15,5.28,5.28,0,0,0-.81-1,5.63,5.63,0,0,0-3.42-1.51l0,0h-3.17V69.15h51.83l.26,3.71v.06l.11,1.53.61,8.61h-3.66l-.63-3.81,0-.11a5.61,5.61,0,0,0-5.54-4.69H170.15V96h17.11a5.63,5.63,0,0,0,5.63-5.63V89.11h3.85v19.07h-3.85v-1.39h0a5.61,5.61,0,0,0-5.62-5.52H170.15v19.14a3.14,3.14,0,0,0,3.14,3.14h18.29a8.43,8.43,0,0,0,8.06-6l0-.14v0l1.08-3.67Z"/><path class="cls-1" d="M230.11,69.74a5.59,5.59,0,0,0-.08-.59,8.2,8.2,0,0,0-.31-1.3h0a9.22,9.22,0,0,0-2.28-3.75,9.37,9.37,0,0,0-1.75-1.37l-.38-.22h0l-.39-.2a7.86,7.86,0,0,0-.84-.36l-.21-.07a9.11,9.11,0,0,0-3-.49,9.22,9.22,0,0,0-3,.49,9.06,9.06,0,0,0-1.24.53h0l-.39.21h0A9.4,9.4,0,0,0,213,65.87a9.13,9.13,0,0,0-1.21,3.28,9.58,9.58,0,0,0,.15,3.77h0a9.06,9.06,0,0,0,.85,2.19h0a9.36,9.36,0,0,0,3.52,3.6h0l.39.21h0a9.06,9.06,0,0,0,1.24.53,9.5,9.5,0,0,0,3,.49,9.25,9.25,0,0,0,2.75-.42c.15,0,.29-.09.43-.15a7.81,7.81,0,0,0,.84-.35l.32-.16.07,0h0l.38-.23a8.61,8.61,0,0,0,1.75-1.37,9.35,9.35,0,0,0,1.72-2.36h0a9.2,9.2,0,0,0,.72-1.94h0a9.33,9.33,0,0,0,.28-2.26C230.16,70.35,230.14,70,230.11,69.74ZM222,78.23h-2.2V71.76h-6.46v-2.2h6.46V63.09H222v6.47h6.48v2.2H222Z"/><path class="cls-1" d="M209.1,93l6.41-2.14,10-3.33h1.74v33.09a5.07,5.07,0,0,0,5.07,5.07h.78v3.09h-24v-3.09h1.66a4.73,4.73,0,0,0,4.75-4.75V99.7a2.82,2.82,0,0,0-1.8-2.63l-.06,0-4.55-1.72Z"/><path class="cls-1" d="M62.24,59.08a69.79,69.79,0,0,1-15.61-4.3,71.3,71.3,0,0,1-15.14,4.55l-1.43-3.58a65.63,65.63,0,0,0,12.61-3,25.63,25.63,0,0,1-6.29-5.48,33,33,0,0,1-3.92,4.55Q30.18,54,27,56.55l-2-3.29a43,43,0,0,0,6.64-6,26.06,26.06,0,0,0,4.15-6.43H27.57V37.61H37c.22-.62.5-1.6.84-3L41.7,35c-.25,1-.48,1.9-.68,2.57H62v3.21H39.93a29.17,29.17,0,0,1-1.27,2.74H58.4v2.95a31.52,31.52,0,0,1-7.72,6.2,80.15,80.15,0,0,0,12.78,2.7ZM31,33.69v2.83H27.36V30.44h5.69c-.48-1.29-.88-2.29-1.22-3l3.63-.89c.95,2.28,1.5,3.57,1.64,3.88h6.12c-.65-2-1.06-3.17-1.23-3.62l3.72-.89c.42,1,.95,2.49,1.6,4.51h4.47q1.47-2.28,3-5.1l3.67,1.1q-.93,1.72-2.32,4h6v6.08H58.32V33.69Zm30.24-9.53q-6.37.68-15.48,1.22t-17.46.84L28,22.77q8.44-.25,17.57-.76t15.16-1.14ZM40.35,46.72a20.64,20.64,0,0,0,6.2,4.39,26.08,26.08,0,0,0,6.54-4.39Z"/><path class="cls-1" d="M92.44,48.66q4.05,4.68,16,6.41l-1.6,3.84q-12.94-2.23-17.59-8.48a15.2,15.2,0,0,1-6.07,5A43.51,43.51,0,0,1,71.69,59L70,55.28A40.44,40.44,0,0,0,80.4,52.54a12.34,12.34,0,0,0,5.16-3.88H70.76V45.33H86.87L87,44.4c.12-1,.17-1.67.17-2h4.22c0,.31-.06,1-.17,2l-.08.93h16.7v3.33ZM107.2,38.12v3.37H71.35V38.12H87.21V35H73.54V31.67H87.21V28.46H72.11V25.13H81.3q-2.44-2.74-3.16-3.46L81,19.52l4.43,4.6-1.39,1h8.52q2.91-3.42,4.51-5.65l3.38,1.85q-1.18,1.61-3.08,3.8h9.11v3.33H91.34v3.21H105V35H91.34v3.16Z"/><path class="cls-1" d="M153.42,42.59l-.75,3.71a76.17,76.17,0,0,1-18.52-4.64,75.33,75.33,0,0,1-18.77,5.11l-1-3.76a78,78,0,0,0,15.44-3.37,51.34,51.34,0,0,1-5.45-3.46,38,38,0,0,1-5.27,3.5l-2-3a31.27,31.27,0,0,0,6-3.9,27.68,27.68,0,0,0,5-5l3.33,1.26A24.2,24.2,0,0,1,129.85,31h16.83v3.16a50.6,50.6,0,0,1-8.35,5.53A79.4,79.4,0,0,0,153.42,42.59ZM120.91,27.45v4.6H117V23.91h15.44a36.35,36.35,0,0,0-1.69-3.29l4.35-1.06q1.09,2.4,1.81,4.35h14.64v8.18H147.6V27.45Zm3.88,31.29H121V46h26.61V58.74h-3.84v-1.6H124.79Zm18.93-4.8v-4.6H124.79v4.6Zm-16.36-19.7a32.92,32.92,0,0,0,6.58,3.84,34.46,34.46,0,0,0,6.87-3.84Z"/><path class="cls-1" d="M356.31,88.55c0,1-.22,1.5-.83,1.79a9.14,9.14,0,0,1-3.33.32,8.37,8.37,0,0,0-.51-1.65c1.2,0,2.27,0,2.59,0s.48-.13.48-.5V81.89h-4.19a25,25,0,0,1-2,9,7.28,7.28,0,0,0-1.44-.85c1.84-3.73,2-9,2-12.93V67.59h7.25Zm-1.6-8.31V75.5h-4v1.62c0,1,0,2-.05,3.12Zm-4-11v4.63h4V69.24ZM370,78.75a17.33,17.33,0,0,1-4.82,7.73,17.88,17.88,0,0,0,6.45,2.93,6.69,6.69,0,0,0-1,1.57,18.44,18.44,0,0,1-6.71-3.41,21.36,21.36,0,0,1-6.59,3.3,7.74,7.74,0,0,0-.87-1.54,18.93,18.93,0,0,0,6.2-2.91,19.12,19.12,0,0,1-4.1-6.31l.24-.08h-1.39V78.35h11.3l.27-.08ZM361.5,70.6a7.84,7.84,0,0,1-3.76,7.08,7.8,7.8,0,0,0-1.11-1.28,6.25,6.25,0,0,0,3.27-5.83V67.64h8v6.23c0,.75,0,1,.4,1H370a5.35,5.35,0,0,0,1.12-.13c.05.45.08,1.11.13,1.54a4,4,0,0,1-1.25.13h-1.79c-1.59,0-1.91-.69-1.91-2.58V69.29h-4.8ZM360.09,80a16,16,0,0,0,3.78,5.38A15.15,15.15,0,0,0,367.79,80Zm34,5.41a22.37,22.37,0,0,1-6.37,5,13.18,13.18,0,0,0-1.36-1.17,17.86,17.86,0,0,0,6.1-4.37Zm16.17-2.77v1.46H399.35V89c0,1-.21,1.41-1,1.68a13.91,13.91,0,0,1-3.94.29,6.33,6.33,0,0,0-.59-1.62c1.58,0,2.83,0,3.25,0s.46-.11.46-.43V84.13H386.64V82.67ZM394.45,69.18h-7.54V67.72H409.8v1.46h-7.54v2.19h6.26v6h-20v-6h5.94Zm-4.56,11.51V79.26h17.19v1.43Zm.27-4.69h4.29V72.75h-4.29Zm10.42-6.82H396.1v2.19h4.48ZM396.1,76h4.48V72.75H396.1Zm6.16-3.25V76h4.5V72.75ZM403.67,85a44.78,44.78,0,0,1,6.47,4.18l-1.36,1.07a41.51,41.51,0,0,0-6.39-4.32Zm30.71-17.53a37.64,37.64,0,0,1-2.93,5.46V90.82h-1.79V75.42a29,29,0,0,1-3.73,4.07,11.37,11.37,0,0,0-1-1.67,30.15,30.15,0,0,0,7.84-10.93Zm7,8.95c1,7.22,2.77,12.17,5.75,12.41.75.06,1.23-1.54,1.52-4.66a5.65,5.65,0,0,0,1.47.91c-.56,4.47-1.55,5.88-2.93,5.83-4.4-.32-6.48-5.94-7.52-14.31l-6.6.86-.27-1.68,6.66-.83c-.24-2.45-.43-5.11-.56-7.91h1.79c.08,2.72.26,5.33.5,7.7l8.07-1,.27,1.63Zm6.26-3.89a29.14,29.14,0,0,0-4.42-4.4l1.28-.82A30.55,30.55,0,0,1,449,71.5Zm17.12-4.42h9v1.65h-4a44.74,44.74,0,0,1-1.7,6.5H473V87.51h-4.9V89.7H466.5V79.79A16.93,16.93,0,0,1,465,82.08a7.65,7.65,0,0,0-.85-1.79c1.89-2.55,3.15-6.42,3.89-10.57h-3.33Zm6.64,9.75h-3.33v8.1h3.33Zm13,7.24H474.17V83.44H484.4Zm3.79-6.82s0,.59-.06.83C487.52,86.26,486.91,89,486,90a2.29,2.29,0,0,1-1.79.74,25.93,25.93,0,0,1-3.14,0,4.15,4.15,0,0,0-.51-1.62c1.31.13,2.53.13,3,.13a1.14,1.14,0,0,0,1-.29c.7-.69,1.31-3.12,1.84-9.09H476v0h-.45c.32-2.13.67-5.62.85-8.15l1.66.1c-.16,2-.43,4.53-.67,6.5h5.81c.34-2.71.69-6.07.9-8.39h-9V68.23h9.27l.29-.08,1.25.13c-.21,2.72-.66,6.71-1.06,10Z"/><rect class="cls-1" x="323.41" y="67.27" width="1.76" height="62.33"/><path class="cls-1" d="M362.61,117.5a7,7,0,0,1,1.14,4.06,7.49,7.49,0,0,1-1.12,4.12,7.19,7.19,0,0,1-3,2.62,9.15,9.15,0,0,1-4.06.89,9.75,9.75,0,0,1-5.16-1.43,7.08,7.08,0,0,1-3.17-4.2l2.52-1.44a5.7,5.7,0,0,0,2.3,3.17,6.27,6.27,0,0,0,3.51,1.07,4.89,4.89,0,0,0,3.45-1.28,4.59,4.59,0,0,0,1.38-3.55q0-4.69-6.4-4.69h-1.09l0-2.8h1.22a5.57,5.57,0,0,0,3.94-1.26,4.2,4.2,0,0,0,1.35-3.22,3.74,3.74,0,0,0-1.16-2.91,4.24,4.24,0,0,0-3-1.05,4.78,4.78,0,0,0-3.2,1.12,7.05,7.05,0,0,0-2,3.22l-2.52-1.43a7.63,7.63,0,0,1,3-4.29,8.51,8.51,0,0,1,4.95-1.45,7.48,7.48,0,0,1,5.29,1.85,6.93,6.93,0,0,1,1.1,8.26,5.55,5.55,0,0,1-2.75,2.24A6.41,6.41,0,0,1,362.61,117.5Z"/><path class="cls-1" d="M386.66,125.85a7.35,7.35,0,0,1-12.33,0c-1.43-2.24-2.15-5.51-2.15-9.83s.72-7.64,2.15-9.89a7.32,7.32,0,0,1,12.33,0q2.14,3.36,2.15,9.91T386.66,125.85Zm-9.94-2.08a3.94,3.94,0,0,0,3.76,2.55,4,4,0,0,0,3.78-2.53c.81-1.7,1.22-4.29,1.22-7.79s-.41-6.14-1.22-7.86a4,4,0,0,0-3.78-2.57,4,4,0,0,0-3.76,2.57q-1.22,2.58-1.21,7.86T376.72,123.77Z"/><path class="cls-1" d="M411.5,125.85a7.34,7.34,0,0,1-12.32,0c-1.43-2.24-2.15-5.51-2.15-9.83s.72-7.64,2.15-9.89a7.31,7.31,0,0,1,12.32,0q2.16,3.36,2.16,9.91T411.5,125.85Zm-9.93-2.08a3.94,3.94,0,0,0,3.76,2.55,4,4,0,0,0,3.78-2.53c.81-1.7,1.22-4.29,1.22-7.79s-.41-6.14-1.22-7.86a4,4,0,0,0-3.78-2.57,4,4,0,0,0-3.76,2.57q-1.21,2.58-1.21,7.86T401.57,123.77Z"/><path class="cls-1" d="M437.33,117.54a7.22,7.22,0,0,1,1.14,4,7.49,7.49,0,0,1-1,3.91,7.37,7.37,0,0,1-2.91,2.73,9,9,0,0,1-4.28,1,9.3,9.3,0,0,1-4.38-1,7.18,7.18,0,0,1-2.94-2.73,7.45,7.45,0,0,1-1.05-3.92,7.08,7.08,0,0,1,4.31-6.68,6.36,6.36,0,0,1-2.52-2.26,5.75,5.75,0,0,1-.91-3.2,6.32,6.32,0,0,1,.94-3.36,6.59,6.59,0,0,1,2.66-2.43,8.24,8.24,0,0,1,3.89-.9,7.81,7.81,0,0,1,3.79.9,6.4,6.4,0,0,1,3.49,5.79,5.9,5.9,0,0,1-.88,3.2,6.23,6.23,0,0,1-2.45,2.26A7.16,7.16,0,0,1,437.33,117.54Zm-3.48,7.52a4.78,4.78,0,0,0,1.37-3.6,5.08,5.08,0,0,0-1.33-3.68,4.85,4.85,0,0,0-3.64-1.36,5,5,0,0,0-3.7,1.36,5,5,0,0,0-1.34,3.68,4.77,4.77,0,0,0,1.36,3.62,5.07,5.07,0,0,0,3.68,1.31A4.92,4.92,0,0,0,433.85,125.06Zm-6.7-18.48a4.32,4.32,0,0,0,0,5.85,4.21,4.21,0,0,0,3.1,1.12,4.07,4.07,0,0,0,3-1.14,4.33,4.33,0,0,0,0-5.81,4.07,4.07,0,0,0-3-1.14A4.25,4.25,0,0,0,427.15,106.58Z"/><path class="cls-1" d="M459.16,103.78a7.42,7.42,0,0,1,2.94,2.94,9.26,9.26,0,0,1,.36,7.79,34.25,34.25,0,0,1-2.25,4.18l-6.13,10.08h-3.53l5.28-8.61c.33-.51.65-1,1-1.43a7.92,7.92,0,0,1-2.41.35,7.61,7.61,0,0,1-6.85-4,8.53,8.53,0,0,1-1-4.09,8.4,8.4,0,0,1,1.06-4.2,7.71,7.71,0,0,1,3-3,8.57,8.57,0,0,1,4.25-1.07A8.73,8.73,0,0,1,459.16,103.78Zm-.69,10.94a5.53,5.53,0,0,0,1.35-3.87,5.41,5.41,0,0,0-1.35-3.83,5.18,5.18,0,0,0-7.21,0,5.45,5.45,0,0,0-1.34,3.81,5.57,5.57,0,0,0,1.33,3.87,4.57,4.57,0,0,0,3.6,1.49A4.63,4.63,0,0,0,458.47,114.72Z"/><path class="cls-1" d="M484.64,113.93a7.7,7.7,0,0,1,2.78,2.94,8.6,8.6,0,0,1,1,4.1,8.41,8.41,0,0,1-1.07,4.2,7.64,7.64,0,0,1-3,3,8.54,8.54,0,0,1-4.25,1.06,8.69,8.69,0,0,1-4.3-1.05,7.42,7.42,0,0,1-2.94-2.94,9.29,9.29,0,0,1-.37-7.78,34.56,34.56,0,0,1,2.26-4.19l6.12-10.08h3.54l-5.29,8.61c-.32.52-.65,1-1,1.44a8,8,0,0,1,2.42-.35A7.7,7.7,0,0,1,484.64,113.93Zm-.93,11a5.42,5.42,0,0,0,1.35-3.82,5.6,5.6,0,0,0-1.33-3.86,4.58,4.58,0,0,0-3.61-1.49,4.63,4.63,0,0,0-3.62,1.49,5.52,5.52,0,0,0-1.35,3.86,5.42,5.42,0,0,0,1.35,3.84,4.74,4.74,0,0,0,3.62,1.45A4.63,4.63,0,0,0,483.71,124.89Z"/></svg>