<?xml version="1.0" standalone="no"?><!DOCTYPE svg PUBLIC "-//W3C//DTD SVG 1.1//EN" "http://www.w3.org/Graphics/SVG/1.1/DTD/svg11.dtd"><svg t="1648731739987" class="icon" viewBox="0 0 1024 1024" version="1.1" xmlns="http://www.w3.org/2000/svg" p-id="6468" xmlns:xlink="http://www.w3.org/1999/xlink" width="200" height="200"><defs><style type="text/css">@font-face { font-family: element-icons; src: url("chrome-extension://moombeodfomdpjnpocobemoiaemednkg/fonts/element-icons.woff") format("woff"), url("chrome-extension://moombeodfomdpjnpocobemoiaemednkg/fonts/element-icons.ttf ") format("truetype"); }
@font-face { font-family: feedback-iconfont; src: url("//at.alicdn.com/t/font_1031158_u69w8yhxdu.woff2?t=1630033759944") format("woff2"), url("//at.alicdn.com/t/font_1031158_u69w8yhxdu.woff?t=1630033759944") format("woff"), url("//at.alicdn.com/t/font_1031158_u69w8yhxdu.ttf?t=1630033759944") format("truetype"); }
</style></defs><path d="M64.7 512.4c0 247.2 200.1 447.3 447.3 447.3 247.2 0 447.3-200.1 447.3-447.3 0-247.2-200.7-447.3-447.3-447.3-247.2 0-447.3 200.6-447.3 447.3z m0 0" fill="#f4ea2a" p-id="6469" data-spm-anchor-id="a313x.7781069.0.i8" class="selected"></path><path d="M509.8 527c30.8 16.8 78.5-111.6-2.8-104.3-81.3 7.3 2.8 104.3 2.8 104.3z m0 0" fill="#FCDFCB" p-id="6470"></path><path d="M490.1 828.6c0 7.8 3.9 15.1 10.6 19.1 6.7 3.9 15.1 3.9 21.9 0 6.7-3.9 10.6-11.2 10.6-19.1 0-12.3-9.5-21.9-21.9-21.9-11.6 0.6-21.2 10.1-21.2 21.9z m0 0" fill="#5A7A86" p-id="6471"></path><path d="M330.9 527c-30.8 17.9-81.3-109.3 0-104.3 81.9 5 0 104.3 0 104.3z m357.1 0c30.8 17.9 81.3-109.3 0-104.3s0 104.3 0 104.3z m0 0" fill="#FCDFCB" p-id="6472"></path><path d="M707.1 460.8c0 107.6-86.9 223.7-194.5 223.7s-194.5-116-194.5-223.7c0-107.6 86.9-194.5 194.5-194.5s194.5 86.9 194.5 194.5z m-15.7 347.6c0 47.1-80.2 85.8-178.8 85.8-98.7 0-178.8-38.1-178.8-85.8 0-47.1 80.2-62.2 178.8-62.2 98.6-0.1 178.8 14.5 178.8 62.2z m0 0" fill="#FCDFCB" p-id="6473"></path><path d="M763.7 882.4c-28.6 19.6-59.4 35.9-92.5 48.2-8.4 3.4-17.4 6.2-26.3 9-28.6 9-57.7 14.6-87.5 17.9-14 1.7-28 2.2-42 2.2h-6.2c-14 0-28-0.6-41.5-2.2-28.6-2.8-56.6-8.4-83-16.3-7.8-2.2-16.3-5-24.1-7.8l-13.5-5c-1.1-0.6-2.8-1.1-3.9-1.7-10.1-3.9-20.2-8.4-29.7-13.5-1.1-0.6-2.8-1.1-3.9-2.2-16.3-8.4-32.5-17.9-47.6-28 14-33.1 33.1-60.5 56.1-81.8 9-8.4 19.1-16.3 29.1-23 3.9-2.2 7.3-5 11.2-7.3 2.8-1.7 5.6-3.4 9-5 3.9-2.2 8.4-4.5 12.3-6.2 1.1-0.6 1.7-1.1 2.8-1.1 5-2.2 10.1-4.5 15.1-6.2l5-1.7c2.2-0.6 4.5-1.7 6.7-2.2 2.2-0.6 4.5-1.7 6.7-2.2v1.1c0 1.1 0.6 2.2 1.1 3.4 0 0.6 0.6 1.1 0.6 1.1 1.1 2.2 2.8 5 4.5 8.4 3.4 5.6 7.8 12.3 13.5 19.6 1.7 1.7 3.4 3.9 4.5 5.6 2.2 2.2 3.9 4.5 6.2 7.3 2.2 2.2 0 0 0 0 2.2 2.8 5 5.6 7.3 7.8l3.4 3.4c1.1 1.1 2.2 2.2 3.9 3.4 1.1 1.1 2.2 2.2 3.4 2.8 1.7 1.7 3.4 2.8 5 4.5 1.7 1.1 2.8 2.2 4.5 3.4 5 3.9 10.1 6.7 15.7 9.5 6.7 3.4 13.5 5 20.2 5.6h4.5c6.2-0.6 12.9-2.2 19.1-5 5.6-2.8 11.2-6.2 16.8-10.1 1.7-1.1 3.9-2.8 5.6-4.5 2.8-2.2 5-4.5 7.3-6.7l8.4-8.4c2.2-2.2 4.5-4.5 6.7-7.3 1.1-1.1 2.2-2.8 3.4-3.9 1.1-1.7 2.2-2.8 3.4-4.5 4.5-5.6 8.4-11.2 12.3-16.8 3.9-6.2 7.3-11.2 9-15.1 0-0.6 0.6-1.1 0.6-1.1 1.1-2.2 1.1-3.9 1.1-5 5 1.7 9.5 2.8 14.6 4.5 1.1 0.6 2.8 1.1 3.9 1.7 4.5 1.7 9 3.4 12.9 5 6.2 2.2 11.8 5 17.4 8.4 3.4 1.7 6.2 3.4 9 5 42.4 25.5 75.5 62 97.9 113z m0 0" fill="#FFFDF9" p-id="6474"></path><path d="M449.2 592.6h123.9v181.6H449.2z" fill="#FCDFCB" p-id="6475"></path><path d="M609.5 767.5v0.6l-9.5 34.2-3.4 11.8-0.6 2.8-1.1 4.5-7.3 27.5L577 888l-19.1 69c-14 1.7-28 2.2-42 2.2h-6.2c-14 0-28-0.6-41.5-2.2-5.6-21.9-11.8-46-17.4-69-3.4-14-7.3-28-10.7-40.9-1.7-5.6-2.8-11.2-4.5-16.3v-1.1c-1.1-3.9-2.2-7.8-2.8-11.8-0.6-1.7-0.6-2.8-1.1-4.5-1.7-7.3-3.4-14-5-20.2-2.2-8.4-4.5-16.3-6.7-24.7-0.6-1.1-0.6-2.2-1.1-3.9-1.1-3.4-1.7-5.6-1.7-5.6l33.6 2.8 56.6 5h7.8l59.4-0.6h33.6l1.3 1.3z m0 0" fill="#7DB3F4" p-id="6476"></path><path d="M508.6 959.7c-14 0-28-0.6-41.5-2.2-28.6-2.8-56.6-8.4-83-16.3-7.8-2.2-16.3-5-24.1-7.8-3.4-3.4-7.3-6.2-11.2-9.5-1.1-1.1-2.2-1.7-3.4-2.8-0.6-0.6-1.1-1.1-1.7-1.1-0.6-0.6-1.1-0.6-1.7-1.1-7.3-5.6-14.6-10.7-22.4-15.7-1.1-0.6-2.2-1.7-3.4-2.2-1.1-1.1-2.8-1.7-3.9-2.2-0.6-0.6-1.1-0.6-1.7-1.1 0.6-0.6 1.7-1.1 2.2-1.7 0.6 0 0.6-0.6 1.1-0.6 2.2-1.7 4.5-3.4 6.2-5 2.2-1.7 4.5-3.4 6.7-5.6 12.9-10.1 24.1-19.6 34.8-29.7 3.4-2.8 6.7-6.2 10.1-9.5 3.9-3.9 7.8-7.8 11.8-11.2 3.4-3.4 6.2-6.7 9-9.5 1.1-1.1 2.2-2.2 5-2.2 1.7 0 3.4 0.6 5 1.7 12.3 5 23.5 13.5 33.6 21.9l1.7 1.7c14.6 13.5 28 28.6 38.7 44.8 15.3 20.4 25.4 42.8 32.1 66.9z m0 0" fill="#E4E9F5" p-id="6477"></path><path d="M482.3 892.5c12.3 25.2 23.5 48.2 28.6 67.3h-1.7c-14 0-28-0.6-41.5-2.2-28.6-2.8-56.6-8.4-83-16.3-8.4-8.4-17.4-16.8-26.3-24.1-1.1-1.1-2.2-1.7-3.4-2.8-1.1-1.1-2.2-1.7-3.4-2.8-1.1-1.1-2.8-2.2-3.9-2.8-7.3-5.6-14.6-11.2-22.4-15.7-1.1-0.6-2.2-1.7-3.4-2.2-2.2-1.1-3.9-2.8-6.2-3.9 6.2-4.5 12.3-9 17.9-13.5 9-7.3 17.4-14 25.2-20.7 4.5-3.9 9-7.8 13.5-12.3 3.4-3.4 6.7-6.7 10.1-9.5 4.5-4.5 8.4-8.4 12.3-12.9 0.6-0.6 2.8-3.4 5-5.6 1.1-1.1 2.2-1.7 2.8-1.7 1.7 0 4.5-0.6 6.2 0 1.7 0.6 3.4 0.6 5.6-0.6 1.1-1.1 2.8-2.2 3.9-3.9 2.2-3.4 5-7.3 7.3-11.2 2.2-4.5 4.5-8.4 6.7-11.2l1.7-1.7c0.6-0.6 1.1-1.1 1.7-1.1 1.1-0.6 2.8-0.6 3.9 0.6 0 1.7 0.6 3.4 1.1 5.6 0 1.1 0.6 2.8 0.6 3.9 1.7 8.4 3.9 16.3 6.7 24.7 0.6 1.1 0.6 2.2 1.1 3.4 0 0.6 0 0.6 0.6 1.1 0.6 1.1 0.6 2.2 1.1 3.4 9.2 23.3 20.9 46.8 31.6 68.7z m0 0" fill="#F2F5FB" p-id="6478"></path><path d="M463.8 800.5c-23 14.6-1.7 7.8-20.7 27.5-14-25.2-90.3-11.2-112.1-27.5 90.7-97 63.3-21.8 132.8 0z m0 0" fill="#E4E9F5" p-id="6479"></path><path d="M462.1 796c-23 14.6-1.7 7.8-20.7 27.5-14-25.2-90.2-11.2-112.1-27.5 90.2-96.9 62.7-21.8 132.8 0z m0 0" fill="#F2F5FB" p-id="6480"></path><path d="M711 902c-13.5 8.4-26.9 17.9-40.4 28.6-8.4 3.4-17.4 6.2-26.3 9-28.6 9-57.7 14.6-87.4 17.9-14 1.7-28 2.2-42 2.2 7.3-23.5 17.9-46.5 32.5-67.3 10.6-15.1 23-29.1 37.6-42l1.7-1.7c9.5-8.4 20.2-15.7 32-20.7l5-1.7c2.8 0 3.9 1.1 5 2.2 8.4 9.5 18.5 19.1 29.2 29.2 12.9 11.8 27.5 24.1 43.7 36.4 3.2 2.8 6 5.1 9.4 7.9z m0 0" fill="#E4E9F5" p-id="6481"></path><path d="M707.6 890.8c-2.2 1.1-3.9 2.8-6.2 3.9-19.6 12.3-38.7 27.5-56.6 44.8-28.6 9-57.7 14.6-87.5 17.9-14 1.7-28 2.2-42 2.2h-1.7c5.6-19.6 17.4-42.6 29.1-67.3 9.5-19.6 20.2-40.9 28-62.2 0.6-2.2 1.7-3.9 2.2-6.2l1.7-5c2.8-8.4 5-16.3 6.7-24.7 0.6-1.1 0.6-2.8 0.6-3.9 0-0.6 0-1.7 0.6-2.2 0-1.1 0.6-2.2 0.6-3.4 1.1-1.1 2.2-1.1 2.8-1.1 1.1 0 2.2 0.6 2.8 1.7l1.7 1.7c2.8 3.4 6.2 9.5 9 15.1 1.1 1.7 1.7 2.8 2.8 4.5 1.7 2.8 3.9 5.6 6.2 6.7 1.7 1.1 3.4 1.7 5.6 1.1 1.7-0.6 4.5 0 6.2 0 1.1 0 1.7 0.6 2.8 1.7 2.2 1.7 3.9 4.5 5 5.6 10.1 10.7 21.3 21.9 34.8 33.1 12.9 11.9 28 23.6 44.8 36z m0 0" fill="#F2F5FB" p-id="6482"></path><path d="M559.1 805c23 14.6 1.7 7.8 20.7 27.5 14-25.2 90.3-11.2 112.1-27.5-90.8-97-63.3-21.9-132.8 0z m0 0" fill="#E4E9F5" p-id="6483"></path><path d="M560.8 800.5c23 14.6 1.7 7.8 20.7 27.5 14-25.2 90.3-11.2 112.1-27.5-90.2-97-62.8-22.4-132.8 0z m0 0" fill="#F2F5FB" p-id="6484"></path><path d="M456.5 733.8l-70.6 23.5 51.6 77.4 76.8-66.1-57.8-34.8z m0 0" fill="#8CA1AC" p-id="6485"></path><path d="M450.3 725.4l-72.9 25.8 53.3 83.5 81.8-70.1-62.2-39.2z m0 0" fill="#3889FF" p-id="6486"></path><path d="M574.8 725.4l70.6 25.8-67.8 87.4-67.8-73.4 65-39.8z m0 0" fill="#3889FF" p-id="6487"></path><path d="M504.1 780.3c0 2.8 1.7 5.6 4.5 7.3 2.8 1.7 6.2 1.7 8.4 0 2.8-1.7 4.5-4.5 4.5-7.3s-1.7-5.6-4.5-7.3c-2.8-1.7-6.2-1.7-8.4 0-2.8 1.2-4.5 4-4.5 7.3z m0 61.7c0 4.5 3.9 8.4 8.4 8.4s8.4-3.9 8.4-8.4c0-2.8-1.7-5.6-4.5-7.3-2.8-1.7-6.2-1.7-8.4 0s-3.9 4.5-3.9 7.3z m0 71.2c0 2.8 1.7 5.6 4.5 7.3 2.8 1.7 6.2 1.7 8.4 0 2.8-1.7 4.5-4.5 4.5-7.3s-1.7-5.6-4.5-7.3c-2.8-1.7-6.2-1.7-8.4 0-2.8 1.1-4.5 3.9-4.5 7.3z m0 0" fill="#FFFDF9" p-id="6488"></path><path d="M361.2 820.7l12.3 5.6c26.9-59.4 49.3-88 76.8-101.5v-14.6c-27.4 13-58.8 43.2-89.1 110.5z m212.5-113.8V722c26.3 11.8 46.5 39.8 74.6 108.8l11.8-5c-32.1-79.1-55-108.2-86.4-118.9z m0 0" fill="#5A7A86" p-id="6489"></path><path d="M313 913.2c-1.1-0.6-2.8-1.1-3.9-2.2 0.6-1.7 1.1-3.4 1.7-5.6 0.6-1.1 1.1-2.8 1.1-3.9 0.6-1.1 0.6-2.2 1.1-3.4 0.6-1.1 0.6-1.7 1.1-2.8v-1.1h0.6l3.4 1.1c-0.6 1.7-1.1 2.8-1.7 4.5 0 0.6-0.6 1.7-0.6 2.8-0.6 1.7-1.1 2.8-1.7 4.5 0 2.2-0.5 3.9-1.1 6.1z m42.6-1.1c-0.6 0.6-0.6 1.1-1.1 1.7-0.6 1.7-1.7 2.8-2.2 4.5-0.6 1.1-1.1 2.2-1.7 3.9 0 0.6-0.6 1.1-0.6 1.7-0.6 1.7-1.7 2.8-2.2 4.5-1.1-0.6-2.8-1.1-3.9-1.7 1.1-1.7 2.2-3.9 2.8-5.6v-0.6c0.6-1.1 1.7-2.8 2.2-3.9 1.1-1.7 1.7-3.9 2.8-5 0-0.6 0.6-1.1 0.6-1.1l3.3 1.6z m0 0" fill="#86999E" p-id="6490"></path><path d="M354.5 924.4l-12.3-5 29.7-70.1c2.8-6.7-0.6-14.6-7.3-17.4-6.7-2.8-14.6 0.6-17.4 7.3l-29.7 70.1-11.8-5.6 29.7-70.1c5.6-13.5 21.3-19.6 34.8-14 13.5 5.6 19.6 21.3 14 34.8l-29.7 70z m0 0" fill="#5A7A86" p-id="6491"></path><path d="M545.6 254c8.4-30.3 38.7-48.2 68.9-46 30.3 2.2 58.9 21.9 80.2 46.5 6.7 7.8 12.9 16.3 17.4 25.2 15.1 30.8 12.9 136.2 0 165.4L545.6 254z m0 0" fill="#332115" p-id="6492"></path><path d="M546.8 195.1c17.4 13.5 33.1 38.1 24.7 60-20.2 29.7-58.9 28-90.8 37-25.2 6.7-48.2 21.3-72.9 28.6-29.2 8.4-61.7 5.6-88-11.8-26.3-16.8-46-49.3-47.1-84.1 12.3 6.7 24.7 13.5 38.7 13.5 18.5 0 34.2-13.5 50.4-23.5 16.8-11.2 34.2-19.6 51.6-28 13.5-6.7 27.5-13.5 41.5-16.3 31.9-7.3 65.5 3.3 91.9 24.6z m0 0" fill="#332115" p-id="6493"></path><path d="M717.7 408.7c-0.6-10.1-1.1-19.6-1.7-24.1-0.6-34.2-11.2-63.9-31.4-91.4-35.3-47.6-88.6-76.8-148.5-76.8h-47.7c-53.2 0-104.3 24.7-140.1 63.9-21.9 23.5-36.4 53.3-43.2 84.6-3.4 16.3-4.5 32.5-3.9 49.3 0.6 12.9-2.2 38.1 14.6 28.6C325.9 437.3 336 416 345 407c11.2-11.2 23.5-21.9 36.4-30.3 26.9-17.4 57.2-27.5 89.1-28.6 51-2.2 99.8 16.3 143.5 40.9 25.2 14 48.2 21.9 65.6 45.4 4.5 5.6 9 12.3 15.7 15.1 21.3 6.8 23.5-18.9 22.4-40.8z m0 0" fill="#332115" p-id="6494"></path><path d="M304 399.7c1.7-5 5.6-9.5 10.1-12.9 14-12.3 33.1-18.5 51.6-17.4-18.5 19.1-36.4 42-37.6 68.4-0.6 17.4 5.6 35.9-1.1 52.1-12.9-22.4-21.3-47.7-24.1-73.4-0.6-5-0.6-11.2 1.1-16.8z m410.4 0c-1.7-5-5.6-9.5-10.1-12.9-14-12.3-33.1-18.5-51.6-17.4 18.5 19.1 36.4 42 37.6 68.4 0.6 17.4-5.6 35.9 1.1 52.1 12.9-22.4 20.7-47.7 24.1-73.4 0.5-5 1.1-11.2-1.1-16.8z m0 0" fill="#332115" p-id="6495"></path><path d="M572.5 671.6v17.9c-35.3 19.6-80.2 16.3-124.4 0.6V671c5 0 1.7 0 2.2 0.6C470 680 490.7 685 512.6 685c20.7-0.5 42-5 59.9-13.4z m0 0" fill="#EFC4A6" p-id="6496"></path></svg>